<svg width="25" height="14" viewBox="0 0 25 14" fill="none" xmlns="http://www.w3.org/2000/svg">
<path d="M19.5312 7.77778H5.46875C5.03125 7.77778 4.6875 7.43556 4.6875 7.00001C4.6875 6.56445 5.03125 6.22223 5.46875 6.22223H19.5312C19.9688 6.22223 20.3125 6.56445 20.3125 7.00001C20.3125 7.43556 19.9688 7.77778 19.5312 7.77778Z" fill="white"/>
<path d="M15.625 13.2222C15.5225 13.2234 15.4209 13.2033 15.3268 13.1631C15.2326 13.123 15.1479 13.0636 15.0781 12.9889C14.7656 12.6778 14.7656 12.1955 15.0781 11.8844L20 6.98442L15.0781 2.08442C14.7656 1.77331 14.7656 1.29109 15.0781 0.979976C15.3906 0.668865 15.875 0.668865 16.1875 0.979976L21.6562 6.42442C21.9688 6.73553 21.9688 7.21775 21.6562 7.52886L16.1875 12.9733C16.0312 13.1289 15.8281 13.2066 15.6406 13.2066L15.625 13.2222Z" fill="white"/>
</svg>
