<svg width="23" height="17" viewBox="0 0 23 17" fill="none" xmlns="http://www.w3.org/2000/svg">
<path d="M21.6608 9.49576H3.37154C2.80254 9.49576 2.35547 9.04869 2.35547 8.47969C2.35547 7.91069 2.80254 7.46362 3.37154 7.46362H21.6608C22.2298 7.46362 22.6768 7.91069 22.6768 8.47969C22.6768 9.04869 22.2298 9.49576 21.6608 9.49576Z" fill="#FF812E"/>
<path d="M8.45179 16.6082C8.31853 16.6098 8.18641 16.5835 8.06392 16.531C7.94142 16.4785 7.83127 16.401 7.74055 16.3034L0.628063 9.19087C0.221635 8.78445 0.221635 8.15448 0.628063 7.74806L7.74055 0.655895C8.14697 0.249467 8.77694 0.249467 9.18336 0.655895C9.58979 1.06232 9.58979 1.69229 9.18336 2.09871L2.78213 8.49995L9.18336 14.9012C9.58979 15.3076 9.58979 15.9376 9.18336 16.344C8.98015 16.5472 8.71597 16.6488 8.47212 16.6488L8.45179 16.6082Z" fill="#FF812E"/>
</svg>
