<svg width="30" height="28" viewBox="0 0 30 28" fill="none" xmlns="http://www.w3.org/2000/svg">
<path d="M4.10223 16.7586C3.17565 12.6605 2.71106 10.6108 3.87381 9.25047C5.03527 7.88892 7.24849 7.88892 11.6736 7.88892H18.3275C22.754 7.88892 24.9646 7.88892 26.1274 9.25047C27.2901 10.612 26.8255 12.6605 25.8989 16.7586L25.3453 19.203C24.7168 21.9811 24.4032 23.3696 23.3386 24.1848C22.2739 25 20.7743 25 17.7752 25H12.226C9.22684 25 7.72727 25 6.66389 24.1848C5.59793 23.3696 5.28305 21.9811 4.65586 19.203L4.10223 16.7586Z" stroke="#FF812E" stroke-width="1.8"/>
<path d="M9.83883 14H20.1629M12.4198 17.6667H17.5819M22.7439 10.3333L18.8724 3M7.25781 10.3333L11.1293 3" stroke="#FF812E" stroke-width="1.8" stroke-linecap="round" stroke-linejoin="round"/>
</svg>
