<svg width="19" height="20" viewBox="0 0 19 20" fill="none" xmlns="http://www.w3.org/2000/svg">
<path d="M9.5 3.66663C9.24944 3.84647 9.04643 4.0846 8.90851 4.36046C8.77058 4.63632 8.70187 4.94161 8.70833 5.24996C8.70187 5.55831 8.77058 5.8636 8.90851 6.13946C9.04643 6.41531 9.24944 6.65345 9.5 6.83329M12.6667 3.66663C12.4161 3.84647 12.2131 4.0846 12.0752 4.36046C11.9372 4.63632 11.8685 4.94161 11.875 5.24996C11.8685 5.55831 11.9372 5.8636 12.0752 6.13946C12.2131 6.41531 12.4161 6.65345 12.6667 6.83329M6.33333 3.66663C6.08278 3.84647 5.87977 4.0846 5.74184 4.36046C5.60391 4.63632 5.53521 4.94161 5.54167 5.24996C5.53521 5.55831 5.60391 5.8636 5.74184 6.13946C5.87977 6.41531 6.08278 6.65345 6.33333 6.83329M3.16667 9.20829H15.8333C16.0433 9.20829 16.2447 9.2917 16.3931 9.44017C16.5416 9.58863 16.625 9.79 16.625 9.99996V10.3958C16.625 11.5833 14.6324 14.8078 13.4583 15.5416V16.3333C13.4583 16.5433 13.3749 16.7446 13.2265 16.8931C13.078 17.0416 12.8766 17.125 12.6667 17.125H6.33333C6.12337 17.125 5.92201 17.0416 5.77354 16.8931C5.62507 16.7446 5.54167 16.5433 5.54167 16.3333V15.5416C4.20613 14.7072 2.375 11.5833 2.375 10.3958V9.99996C2.375 9.79 2.45841 9.58863 2.60687 9.44017C2.75534 9.2917 2.9567 9.20829 3.16667 9.20829Z" stroke="#FF6600" stroke-width="1.4" stroke-linecap="round" stroke-linejoin="round"/>
</svg>
