<svg width="34" height="34" viewBox="0 0 34 34" fill="none" xmlns="http://www.w3.org/2000/svg">
<path d="M14.186 1.2576C14.5403 0.861916 14.974 0.545398 15.4589 0.328701C15.9438 0.112004 16.4689 0 17 0C17.5311 0 18.0562 0.112004 18.5411 0.328701C19.026 0.545398 19.4597 0.861916 19.814 1.2576L21.136 2.73452C21.5138 3.15662 21.9818 3.48833 22.5052 3.70508C23.0286 3.92184 23.594 4.01808 24.1596 3.98669L26.1427 3.87715C26.6731 3.84791 27.2037 3.93088 27.6998 4.12064C28.196 4.3104 28.6465 4.60268 29.0221 4.9784C29.3976 5.35412 29.6897 5.80483 29.8792 6.30109C30.0687 6.79736 30.1514 7.32801 30.1219 7.85842L30.0124 9.83961C29.9813 10.4049 30.0777 10.97 30.2944 11.4931C30.5111 12.0162 30.8427 12.4838 31.2645 12.8614L32.7414 14.1835C33.1374 14.5378 33.4541 14.9717 33.671 15.4567C33.8879 15.9418 34 16.4672 34 16.9985C34 17.5299 33.8879 18.0553 33.671 18.5403C33.4541 19.0254 33.1374 19.4593 32.7414 19.8136L31.2645 21.1356C30.8424 21.5135 30.5107 21.9814 30.294 22.5048C30.0772 23.0282 29.981 23.5937 30.0124 24.1593L30.1219 26.1424C30.1512 26.6728 30.0682 27.2034 29.8784 27.6996C29.6887 28.1958 29.3964 28.6464 29.0207 29.0219C28.645 29.3974 28.1943 29.6895 27.698 29.879C27.2018 30.0686 26.6712 30.1513 26.1408 30.1218L24.1596 30.0122C23.5943 29.9811 23.0292 30.0775 22.5062 30.2943C21.9832 30.511 21.5155 30.8426 21.1379 31.2644L19.8159 32.7413C19.4616 33.1373 19.0278 33.4541 18.5427 33.671C18.0576 33.8879 17.5323 34 17.0009 34C16.4696 34 15.9443 33.8879 15.4592 33.671C14.9741 33.4541 14.5403 33.1373 14.186 32.7413L12.864 31.2644C12.4862 30.8423 12.0182 30.5106 11.4948 30.2939C10.9714 30.0771 10.406 29.9809 9.84036 30.0122L7.85734 30.1218C7.32694 30.151 6.79634 30.0681 6.30018 29.8783C5.80402 29.6885 5.35347 29.3963 4.97794 29.0205C4.60241 28.6448 4.31035 28.1941 4.12083 27.6978C3.93131 27.2016 3.84859 26.6709 3.87808 26.1405L3.98762 24.1593C4.01872 23.594 3.92234 23.0289 3.70561 22.5058C3.48887 21.9828 3.15732 21.5151 2.73549 21.1375L1.25861 19.8154C0.862634 19.4611 0.545858 19.0273 0.32898 18.5422C0.112101 18.0571 0 17.5318 0 17.0004C0 16.4691 0.112101 15.9437 0.32898 15.4586C0.545858 14.9735 0.862634 14.5397 1.25861 14.1854L2.73549 12.8633C3.15758 12.4855 3.48928 12.0175 3.70602 11.4941C3.92277 10.9707 4.01901 10.4053 3.98762 9.83961L3.87808 7.85653C3.84912 7.32627 3.93229 6.79585 4.12217 6.29991C4.31205 5.80396 4.60436 5.35363 4.98004 4.97829C5.35572 4.60296 5.80632 4.31106 6.30243 4.12165C6.79854 3.93224 7.32901 3.84957 7.85923 3.87904L9.84036 3.98858C10.4057 4.01968 10.9708 3.9233 11.4938 3.70656C12.0168 3.48981 12.4845 3.15825 12.8621 2.73641L14.186 1.2576Z" fill="#CE2E2E"/>
</svg>
