<svg width="25" height="25" viewBox="0 0 25 25" fill="none" xmlns="http://www.w3.org/2000/svg">
<path d="M9.5 5.50001C9.23478 5.50001 8.98043 5.60537 8.79289 5.7929C8.60536 5.98044 8.5 6.23479 8.5 6.50001C8.5 6.76523 8.60536 7.01958 8.79289 7.20712C8.98043 7.39465 9.23478 7.50001 9.5 7.50001C9.76522 7.50001 10.0196 7.39465 10.2071 7.20712C10.3946 7.01958 10.5 6.76523 10.5 6.50001C10.5 6.23479 10.3946 5.98044 10.2071 5.7929C10.0196 5.60537 9.76522 5.50001 9.5 5.50001ZM6.67 5.50001C6.8766 4.91448 7.25974 4.40744 7.7666 4.0488C8.27346 3.69015 8.87909 3.49756 9.5 3.49756C10.1209 3.49756 10.7265 3.69015 11.2334 4.0488C11.7403 4.40744 12.1234 4.91448 12.33 5.50001H19.5C19.7652 5.50001 20.0196 5.60537 20.2071 5.7929C20.3946 5.98044 20.5 6.23479 20.5 6.50001C20.5 6.76523 20.3946 7.01958 20.2071 7.20712C20.0196 7.39465 19.7652 7.50001 19.5 7.50001H12.33C12.1234 8.08554 11.7403 8.59258 11.2334 8.95122C10.7265 9.30986 10.1209 9.50246 9.5 9.50246C8.87909 9.50246 8.27346 9.30986 7.7666 8.95122C7.25974 8.59258 6.8766 8.08554 6.67 7.50001H5.5C5.23478 7.50001 4.98043 7.39465 4.79289 7.20712C4.60536 7.01958 4.5 6.76523 4.5 6.50001C4.5 6.23479 4.60536 5.98044 4.79289 5.7929C4.98043 5.60537 5.23478 5.50001 5.5 5.50001H6.67ZM15.5 11.5C15.2348 11.5 14.9804 11.6054 14.7929 11.7929C14.6054 11.9804 14.5 12.2348 14.5 12.5C14.5 12.7652 14.6054 13.0196 14.7929 13.2071C14.9804 13.3947 15.2348 13.5 15.5 13.5C15.7652 13.5 16.0196 13.3947 16.2071 13.2071C16.3946 13.0196 16.5 12.7652 16.5 12.5C16.5 12.2348 16.3946 11.9804 16.2071 11.7929C16.0196 11.6054 15.7652 11.5 15.5 11.5ZM12.67 11.5C12.8766 10.9145 13.2597 10.4074 13.7666 10.0488C14.2735 9.69015 14.8791 9.49756 15.5 9.49756C16.1209 9.49756 16.7265 9.69015 17.2334 10.0488C17.7403 10.4074 18.1234 10.9145 18.33 11.5H19.5C19.7652 11.5 20.0196 11.6054 20.2071 11.7929C20.3946 11.9804 20.5 12.2348 20.5 12.5C20.5 12.7652 20.3946 13.0196 20.2071 13.2071C20.0196 13.3947 19.7652 13.5 19.5 13.5H18.33C18.1234 14.0855 17.7403 14.5926 17.2334 14.9512C16.7265 15.3099 16.1209 15.5025 15.5 15.5025C14.8791 15.5025 14.2735 15.3099 13.7666 14.9512C13.2597 14.5926 12.8766 14.0855 12.67 13.5H5.5C5.23478 13.5 4.98043 13.3947 4.79289 13.2071C4.60536 13.0196 4.5 12.7652 4.5 12.5C4.5 12.2348 4.60536 11.9804 4.79289 11.7929C4.98043 11.6054 5.23478 11.5 5.5 11.5H12.67ZM9.5 17.5C9.23478 17.5 8.98043 17.6054 8.79289 17.7929C8.60536 17.9804 8.5 18.2348 8.5 18.5C8.5 18.7652 8.60536 19.0196 8.79289 19.2071C8.98043 19.3947 9.23478 19.5 9.5 19.5C9.76522 19.5 10.0196 19.3947 10.2071 19.2071C10.3946 19.0196 10.5 18.7652 10.5 18.5C10.5 18.2348 10.3946 17.9804 10.2071 17.7929C10.0196 17.6054 9.76522 17.5 9.5 17.5ZM6.67 17.5C6.8766 16.9145 7.25974 16.4074 7.7666 16.0488C8.27346 15.6902 8.87909 15.4976 9.5 15.4976C10.1209 15.4976 10.7265 15.6902 11.2334 16.0488C11.7403 16.4074 12.1234 16.9145 12.33 17.5H19.5C19.7652 17.5 20.0196 17.6054 20.2071 17.7929C20.3946 17.9804 20.5 18.2348 20.5 18.5C20.5 18.7652 20.3946 19.0196 20.2071 19.2071C20.0196 19.3947 19.7652 19.5 19.5 19.5H12.33C12.1234 20.0855 11.7403 20.5926 11.2334 20.9512C10.7265 21.3099 10.1209 21.5025 9.5 21.5025C8.87909 21.5025 8.27346 21.3099 7.7666 20.9512C7.25974 20.5926 6.8766 20.0855 6.67 19.5H5.5C5.23478 19.5 4.98043 19.3947 4.79289 19.2071C4.60536 19.0196 4.5 18.7652 4.5 18.5C4.5 18.2348 4.60536 17.9804 4.79289 17.7929C4.98043 17.6054 5.23478 17.5 5.5 17.5H6.67Z" fill="#FF812E"/>
</svg>
