<svg width="30" height="29" viewBox="0 0 30 29" fill="none" xmlns="http://www.w3.org/2000/svg">
<path d="M2.50875 3.55426C2.80313 2.46858 3.82687 1.81245 4.90313 1.81245C5.56687 1.81245 6.17063 2.05351 6.63 2.44683C7.13648 2.03614 7.77643 1.81104 8.4375 1.81104C9.09857 1.81104 9.73852 2.03614 10.245 2.44683C10.7203 2.03717 11.3351 1.8113 11.9719 1.81245C13.0481 1.81245 14.0719 2.46858 14.3663 3.55426C14.6475 4.59101 15 6.26214 15 8.1562C15 9.2139 14.7263 10.2548 14.204 11.1842C13.6817 12.1136 12.9273 12.902 12.0094 13.4777C11.5013 13.7985 11.25 14.2118 11.25 14.5652V15.283C11.25 15.324 11.2525 15.3639 11.2575 15.4026C11.3212 15.8521 11.5519 17.5214 11.7675 19.2523C11.9794 20.9506 12.1875 22.803 12.1875 23.5625C12.1875 24.5239 11.7924 25.4459 11.0892 26.1257C10.3859 26.8055 9.43206 27.1875 8.4375 27.1875C7.44294 27.1875 6.48911 26.8055 5.78585 26.1257C5.08259 25.4459 4.6875 24.5239 4.6875 23.5625C4.6875 22.8012 4.89562 20.9525 5.1075 19.2523C5.32312 17.5214 5.55375 15.8521 5.6175 15.4026L5.625 15.283V14.5652C5.625 14.2118 5.37375 13.7985 4.86563 13.4777C3.94773 12.902 3.1933 12.1136 2.67099 11.1842C2.14867 10.2548 1.87505 9.2139 1.875 8.1562C1.875 6.26214 2.2275 4.59101 2.50875 3.55426ZM11.25 9.06245C11.25 9.3028 11.1512 9.53331 10.9754 9.70327C10.7996 9.87322 10.5611 9.9687 10.3125 9.9687C10.0639 9.9687 9.8254 9.87322 9.64959 9.70327C9.47377 9.53331 9.375 9.3028 9.375 9.06245V4.5312C9.375 4.29085 9.27623 4.06034 9.10041 3.89039C8.9246 3.72043 8.68614 3.62495 8.4375 3.62495C8.18886 3.62495 7.9504 3.72043 7.77459 3.89039C7.59877 4.06034 7.5 4.29085 7.5 4.5312V9.06245C7.5 9.3028 7.40123 9.53331 7.22541 9.70327C7.0496 9.87322 6.81114 9.9687 6.5625 9.9687C6.31386 9.9687 6.0754 9.87322 5.89959 9.70327C5.72377 9.53331 5.625 9.3028 5.625 9.06245V4.32276C5.625 4.13769 5.54895 3.9602 5.41357 3.82934C5.27819 3.69847 5.09458 3.62495 4.90313 3.62495C4.59188 3.62495 4.37813 3.80439 4.32188 4.01464C3.95237 5.36652 3.76024 6.75796 3.75 8.1562C3.74991 8.91208 3.94544 9.65597 4.31877 10.3201C4.6921 10.9843 5.23138 11.5476 5.8875 11.9588C6.71063 12.4754 7.5 13.3835 7.5 14.5652V15.283C7.5 15.4038 7.49188 15.5246 7.47563 15.6455C7.41187 16.0913 7.18313 17.7498 6.96938 19.4698C6.75187 21.2189 6.5625 22.939 6.5625 23.5625C6.5625 24.0432 6.76004 24.5042 7.11167 24.8441C7.46331 25.184 7.94022 25.375 8.4375 25.375C8.93478 25.375 9.41169 25.184 9.76332 24.8441C10.115 24.5042 10.3125 24.0432 10.3125 23.5625C10.3125 22.939 10.125 21.2189 9.90563 19.468C9.69187 17.7498 9.46313 16.0913 9.39937 15.6436C9.38511 15.5245 9.37698 15.4047 9.375 15.2848V14.567C9.375 13.3853 10.1644 12.4772 10.9875 11.9606C11.6439 11.5493 12.1833 10.9857 12.5567 10.3212C12.93 9.65665 13.1254 8.91239 13.125 8.1562C13.125 6.46695 12.81 4.95895 12.5531 4.01464C12.4969 3.8062 12.2812 3.62495 11.9719 3.62495C11.7804 3.62495 11.5968 3.69847 11.4614 3.82934C11.3261 3.9602 11.25 4.13769 11.25 4.32276V9.06245ZM16.875 9.9687C16.875 7.80553 17.7639 5.73095 19.3463 4.20136C20.9286 2.67177 23.0747 1.81245 25.3125 1.81245C25.5611 1.81245 25.7996 1.90793 25.9754 2.07789C26.1512 2.24784 26.25 2.47835 26.25 2.7187V13.5448L26.2856 13.8656C26.4348 15.2183 26.5779 16.5717 26.715 17.9256C26.9456 20.2021 27.1875 22.7541 27.1875 23.5625C27.1875 24.5239 26.7924 25.4459 26.0891 26.1257C25.3859 26.8055 24.4321 27.1875 23.4375 27.1875C22.4429 27.1875 21.4891 26.8055 20.7859 26.1257C20.0826 25.4459 19.6875 24.5239 19.6875 23.5625C19.6875 22.7541 19.9294 20.2021 20.16 17.9256C20.2781 16.771 20.3962 15.6654 20.4844 14.8461L20.5219 14.5H18.75C18.2527 14.5 17.7758 14.309 17.4242 13.9691C17.0725 13.6292 16.875 13.1682 16.875 12.6875V9.9687ZM22.4944 13.6898L22.455 14.0559C22.3084 15.4046 22.1659 16.7537 22.0275 18.1032C21.7894 20.4359 21.5625 22.8701 21.5625 23.5625C21.5625 24.0432 21.76 24.5042 22.1117 24.8441C22.4633 25.184 22.9402 25.375 23.4375 25.375C23.9348 25.375 24.4117 25.184 24.7633 24.8441C25.115 24.5042 25.3125 24.0432 25.3125 23.5625C25.3125 22.8683 25.0856 20.4359 24.8475 18.1032C24.71 16.7536 24.5675 15.4045 24.42 14.0559L24.3806 13.6916L24.375 13.5937V3.68839C22.8128 3.90635 21.3843 4.66125 20.3512 5.81473C19.318 6.9682 18.7496 8.44297 18.75 9.9687V12.6875H21.5625C21.694 12.6875 21.824 12.7143 21.944 12.766C22.0641 12.8178 22.1716 12.8934 22.2594 12.9879C22.3473 13.0824 22.4136 13.1938 22.4541 13.3147C22.4946 13.4356 22.5083 13.5634 22.4944 13.6898Z" fill="#A8A8A8"/>
</svg>
