<svg width="28" height="29" viewBox="0 0 28 29" fill="none" xmlns="http://www.w3.org/2000/svg">
<path d="M17.5 25V15.6667C17.5 15.3572 17.3771 15.0605 17.1583 14.8417C16.9395 14.6229 16.6428 14.5 16.3333 14.5H11.6667C11.3572 14.5 11.0605 14.6229 10.8417 14.8417C10.6229 15.0605 10.5 15.3572 10.5 15.6667V25" stroke="#FF812E" stroke-width="2" stroke-linecap="round" stroke-linejoin="round"/>
<path d="M3.5 12.1667C3.49992 11.8273 3.57389 11.4919 3.71675 11.184C3.85962 10.8762 4.06793 10.6031 4.32717 10.384L12.4938 3.38521C12.915 3.02927 13.4486 2.83398 14 2.83398C14.5514 2.83398 15.085 3.02927 15.5062 3.38521L23.6728 10.384C23.9321 10.6031 24.1404 10.8762 24.2832 11.184C24.4261 11.4919 24.5001 11.8273 24.5 12.1667V22.6667C24.5 23.2855 24.2542 23.879 23.8166 24.3166C23.379 24.7542 22.7855 25 22.1667 25H5.83333C5.21449 25 4.621 24.7542 4.18342 24.3166C3.74583 23.879 3.5 23.2855 3.5 22.6667V12.1667Z" stroke="#FF812E" stroke-width="2" stroke-linecap="round" stroke-linejoin="round"/>
</svg>
