<svg width="14" height="13" viewBox="0 0 14 13" fill="none" xmlns="http://www.w3.org/2000/svg">
<path d="M0.5 10.4437V12.6389C0.5 12.8411 0.658867 13 0.861062 13H3.05632C3.1502 13 3.24407 12.9639 3.30906 12.8917L11.1947 5.01331L8.48669 2.30534L0.608319 10.1837C0.536106 10.2559 0.5 10.3426 0.5 10.4437ZM13.2888 2.91915C13.3558 2.85234 13.4089 2.77299 13.4451 2.68563C13.4813 2.59827 13.5 2.50462 13.5 2.41005C13.5 2.31547 13.4813 2.22183 13.4451 2.13447C13.4089 2.04711 13.3558 1.96776 13.2888 1.90095L11.599 0.211181C11.5322 0.144237 11.4529 0.0911269 11.3655 0.0548897C11.2782 0.0186524 11.1845 0 11.09 0C10.9954 0 10.9017 0.0186524 10.8144 0.0548897C10.727 0.0911269 10.6477 0.144237 10.5809 0.211181L9.25937 1.53267L11.9673 4.24063L13.2888 2.91915Z" fill="#424242"/>
</svg>
