<svg width="32" height="26" viewBox="0 0 32 26" fill="none" xmlns="http://www.w3.org/2000/svg">
<path d="M14.0991 2.84172C14.3384 2.57689 14.6314 2.36504 14.9588 2.22C15.2863 2.07497 15.641 2 15.9997 2C16.3585 2 16.7131 2.07497 17.0406 2.22C17.3681 2.36504 17.6611 2.57689 17.9004 2.84172L18.7933 3.83025C19.0485 4.11277 19.3645 4.33478 19.7181 4.47986C20.0716 4.62493 20.4535 4.68935 20.8355 4.66834L22.1749 4.59502C22.5331 4.57545 22.8915 4.63098 23.2266 4.75799C23.5618 4.885 23.8661 5.08063 24.1197 5.3321C24.3734 5.58358 24.5706 5.88524 24.6986 6.2174C24.8266 6.54955 24.8825 6.90473 24.8626 7.25973L24.7886 8.58577C24.7676 8.96415 24.8327 9.34238 24.9791 9.69247C25.1255 10.0426 25.3494 10.3556 25.6343 10.6083L26.6318 11.4932C26.8993 11.7303 27.1132 12.0207 27.2597 12.3454C27.4062 12.67 27.4819 13.0217 27.4819 13.3773C27.4819 13.733 27.4062 14.0846 27.2597 14.4093C27.1132 14.7339 26.8993 15.0243 26.6318 15.2615L25.6343 16.1463C25.3492 16.3992 25.1252 16.7124 24.9788 17.0627C24.8324 17.4131 24.7674 17.7915 24.7886 18.1701L24.8626 19.4974C24.8823 19.8524 24.8263 20.2076 24.6981 20.5397C24.57 20.8718 24.3725 21.1734 24.1188 21.4247C23.865 21.6761 23.5606 21.8716 23.2254 21.9984C22.8903 22.1253 22.5319 22.1806 22.1736 22.1609L20.8355 22.0876C20.4537 22.0667 20.072 22.1313 19.7188 22.2763C19.3655 22.4214 19.0496 22.6433 18.7946 22.9257L17.9017 23.9142C17.6624 24.1792 17.3693 24.3912 17.0417 24.5364C16.7141 24.6816 16.3593 24.7566 16.0004 24.7566C15.6415 24.7566 15.2867 24.6816 14.9591 24.5364C14.6314 24.3912 14.3384 24.1792 14.0991 23.9142L13.2062 22.9257C12.951 22.6431 12.6349 22.4211 12.2814 22.276C11.9279 22.131 11.546 22.0665 11.164 22.0876L9.8246 22.1609C9.46635 22.1804 9.10797 22.1249 8.77286 21.9979C8.43774 21.8709 8.13342 21.6753 7.87978 21.4238C7.62614 21.1723 7.42888 20.8707 7.30087 20.5385C7.17287 20.2063 7.117 19.8512 7.13692 19.4962L7.21091 18.1701C7.23191 17.7917 7.16681 17.4135 7.02042 17.0634C6.87404 16.7133 6.6501 16.4003 6.36519 16.1476L5.36767 15.2627C5.10022 15.0256 4.88626 14.7352 4.73978 14.4105C4.59329 14.0859 4.51758 13.7342 4.51758 13.3786C4.51758 13.0229 4.59329 12.6713 4.73978 12.3466C4.88626 12.022 5.10022 11.7316 5.36767 11.4944L6.36519 10.6096C6.65028 10.3567 6.87431 10.0435 7.02071 9.69316C7.1671 9.34283 7.23211 8.96436 7.21091 8.58577L7.13692 7.25847C7.11736 6.90356 7.17353 6.54855 7.30178 6.2166C7.43003 5.88466 7.62746 5.58325 7.88121 5.33203C8.13495 5.08082 8.43929 4.88545 8.77437 4.75867C9.10946 4.6319 9.46775 4.57656 9.82587 4.59629L11.164 4.6696C11.5458 4.69042 11.9275 4.62591 12.2807 4.48084C12.634 4.33577 12.9499 4.11386 13.2049 3.83151L14.0991 2.84172Z" stroke="#A8A8A8" stroke-width="2"/>
<path d="M12.8108 10.2178H12.8235V10.2304H12.8108V10.2178ZM19.1888 16.5382H19.2015V16.5509H19.1888V16.5382Z" stroke="#A8A8A8" stroke-width="3" stroke-linejoin="round"/>
<path d="M19.8264 9.58569L12.1729 17.1703" stroke="#A8A8A8" stroke-width="2" stroke-linecap="round" stroke-linejoin="round"/>
</svg>
