<svg width="24" height="25" viewBox="0 0 24 25" fill="none" xmlns="http://www.w3.org/2000/svg">
<path d="M21.7969 20.7031L17.9813 16.8875C19.2136 15.3148 19.8807 13.373 19.875 11.375C19.875 9.59497 19.3472 7.85491 18.3582 6.37487C17.3693 4.89483 15.9637 3.74128 14.3192 3.06009C12.6746 2.3789 10.865 2.20067 9.11919 2.54794C7.37336 2.8952 5.76972 3.75237 4.51104 5.01104C3.25237 6.26972 2.3952 7.87336 2.04794 9.61919C1.70067 11.365 1.8789 13.1746 2.56009 14.8192C3.24128 16.4637 4.39483 17.8693 5.87487 18.8582C7.35491 19.8472 9.09497 20.375 10.875 20.375C12.873 20.3806 14.8148 19.7136 16.3875 18.4813L20.2031 22.2969C20.4154 22.5064 20.7017 22.6239 21 22.6239C21.2983 22.6239 21.5846 22.5064 21.7969 22.2969C21.9018 22.1924 21.985 22.0682 22.0418 21.9314C22.0985 21.7947 22.1278 21.6481 22.1278 21.5C22.1278 21.3519 22.0985 21.2053 22.0418 21.0686C21.985 20.9318 21.9018 20.8076 21.7969 20.7031ZM4.125 11.375C4.125 10.04 4.52088 8.73494 5.26258 7.6249C6.00428 6.51487 7.05849 5.64971 8.29189 5.13882C9.52529 4.62793 10.8825 4.49425 12.1919 4.7547C13.5012 5.01515 14.704 5.65803 15.648 6.60203C16.592 7.54604 17.2349 8.74877 17.4953 10.0581C17.7558 11.3675 17.6221 12.7247 17.1112 13.9581C16.6003 15.1915 15.7351 16.2457 14.6251 16.9874C13.5151 17.7291 12.21 18.125 10.875 18.125C9.08556 18.1225 7.37011 17.4106 6.10477 16.1452C4.83944 14.8799 4.12748 13.1645 4.125 11.375Z" fill="#D1D1D1"/>
</svg>
