<svg width="14" height="15" viewBox="0 0 14 15" fill="none" xmlns="http://www.w3.org/2000/svg">
<rect y="0.5" width="14" height="14" rx="7" fill="#FF6600"/>
<path fill-rule="evenodd" clip-rule="evenodd" d="M7.90766 7.04485L5.8584 11.1621C5.78892 11.3019 5.69065 11.4254 5.57005 11.5246C5.44945 11.6237 5.30924 11.6962 5.15863 11.7373C5.00802 11.7784 4.85041 11.7872 4.69617 11.7631C4.54193 11.739 4.39453 11.6825 4.26366 11.5974C4.13279 11.5122 4.02141 11.4004 3.93683 11.2692C3.85225 11.1379 3.79639 10.9903 3.77291 10.836C3.74944 10.6816 3.75887 10.5241 3.80061 10.3736C3.84234 10.2232 3.91543 10.0833 4.01507 9.96309L6.9481 6.42069C6.55527 5.87113 6.32402 4.95523 6.93676 4.01261C7.30792 3.44262 7.82138 3.0279 8.34786 2.81183C8.8601 2.60168 9.46713 2.55107 9.9455 2.86223C10.4238 3.17293 10.6237 3.74883 10.6391 4.30182C10.655 4.87069 10.4842 5.50865 10.113 6.07865C9.49993 7.02183 8.56929 7.18116 7.90766 7.04485Z" fill="white"/>
</svg>
