<svg width="75" height="75" viewBox="0 0 75 75" fill="none" xmlns="http://www.w3.org/2000/svg">
<rect x="4" y="4" width="67" height="67" rx="33.5" fill="#FFF5B7"/>
<rect x="4" y="4" width="67" height="67" rx="33.5" stroke="#FFFBE5" stroke-width="8"/>
<path d="M37.4999 45.7691C37.9685 45.7691 38.3615 45.6103 38.6791 45.2928C38.9966 44.9753 39.1548 44.5828 39.1537 44.1153C39.1526 43.6478 38.9939 43.2553 38.6774 42.9377C38.361 42.6202 37.9685 42.4614 37.4999 42.4614C37.0313 42.4614 36.6388 42.6202 36.3223 42.9377C36.0059 43.2553 35.8471 43.6478 35.846 44.1153C35.8449 44.5828 36.0037 44.9758 36.3223 45.2945C36.641 45.6131 37.0335 45.7713 37.4999 45.7691ZM35.846 39.1537H39.1537V29.2307H35.846V39.1537ZM37.4999 54.0384C35.2121 54.0384 33.0621 53.6039 31.0499 52.7351C29.0377 51.8663 27.2874 50.6882 25.7989 49.2009C24.3105 47.7135 23.1324 45.9632 22.2647 43.9499C21.3969 41.9366 20.9625 39.7866 20.9614 37.4999C20.9603 35.2132 21.3947 33.0632 22.2647 31.0499C23.1346 29.0366 24.3127 27.2863 25.7989 25.7989C27.2852 24.3116 29.0355 23.1335 31.0499 22.2647C33.0643 21.3958 35.2143 20.9614 37.4999 20.9614C39.7855 20.9614 41.9355 21.3958 43.9499 22.2647C45.9643 23.1335 47.7146 24.3116 49.2009 25.7989C50.6871 27.2863 51.8657 29.0366 52.7368 31.0499C53.6078 33.0632 54.0417 35.2132 54.0383 37.4999C54.035 39.7866 53.6006 41.9366 52.7351 43.9499C51.8696 45.9632 50.6915 47.7135 49.2009 49.2009C47.7102 50.6882 45.9599 51.8668 43.9499 52.7368C41.9399 53.6067 39.7899 54.0406 37.4999 54.0384Z" fill="#FFE12E"/>
</svg>
