<svg width="25" height="25" viewBox="0 0 25 25" fill="none" xmlns="http://www.w3.org/2000/svg">
<path d="M18.8 6.20998C18.7075 6.11728 18.5976 6.04373 18.4766 5.99355C18.3556 5.94337 18.2259 5.91754 18.095 5.91754C17.964 5.91754 17.8343 5.94337 17.7134 5.99355C17.5924 6.04373 17.4825 6.11728 17.39 6.20998L12.5 11.09L7.60998 6.19998C7.5174 6.1074 7.40749 6.03396 7.28652 5.98385C7.16556 5.93375 7.03591 5.90796 6.90498 5.90796C6.77405 5.90796 6.6444 5.93375 6.52344 5.98385C6.40247 6.03396 6.29256 6.1074 6.19998 6.19998C6.1074 6.29256 6.03396 6.40247 5.98385 6.52344C5.93375 6.6444 5.90796 6.77405 5.90796 6.90498C5.90796 7.03591 5.93375 7.16556 5.98385 7.28652C6.03396 7.40749 6.1074 7.5174 6.19998 7.60998L11.09 12.5L6.19998 17.39C6.1074 17.4826 6.03396 17.5925 5.98385 17.7134C5.93375 17.8344 5.90796 17.964 5.90796 18.095C5.90796 18.2259 5.93375 18.3556 5.98385 18.4765C6.03396 18.5975 6.1074 18.7074 6.19998 18.8C6.29256 18.8926 6.40247 18.966 6.52344 19.0161C6.6444 19.0662 6.77405 19.092 6.90498 19.092C7.03591 19.092 7.16556 19.0662 7.28652 19.0161C7.40749 18.966 7.5174 18.8926 7.60998 18.8L12.5 13.91L17.39 18.8C17.4826 18.8926 17.5925 18.966 17.7134 19.0161C17.8344 19.0662 17.964 19.092 18.095 19.092C18.2259 19.092 18.3556 19.0662 18.4765 19.0161C18.5975 18.966 18.7074 18.8926 18.8 18.8C18.8926 18.7074 18.966 18.5975 19.0161 18.4765C19.0662 18.3556 19.092 18.2259 19.092 18.095C19.092 17.964 19.0662 17.8344 19.0161 17.7134C18.966 17.5925 18.8926 17.4826 18.8 17.39L13.91 12.5L18.8 7.60998C19.18 7.22998 19.18 6.58998 18.8 6.20998Z" fill="#FF812E"/>
</svg>
