<svg width="440" height="444" viewBox="0 0 440 444" fill="none" xmlns="http://www.w3.org/2000/svg">
<g clip-path="url(#clip0_218_12047)">
<path d="M-145.662 -73.2998V675.764H603.744V-73.2998H-145.662Z" fill="#ECCA9C"/>
<path d="M286.646 215.091C285.982 252.948 286.369 290.863 287.033 328.72C287.697 367.443 289.136 406.223 292.456 444.657C292.936 450.313 293.471 455.968 294.061 461.624C294.098 462.085 294.19 462.508 294.338 462.893L294.061 387.468C293.397 372.925 292.954 358.382 292.622 343.84C291.737 305.81 291.35 267.606 291.737 229.576C291.958 208.166 292.567 186.698 293.231 165.173L292.788 48.197H288.915C291.018 103.655 287.697 159.806 286.646 215.091Z" fill="white" fill-opacity="0.5"/>
<path fill-rule="evenodd" clip-rule="evenodd" d="M175.097 494.397C177.995 554.696 180.425 615.277 181.826 675.764H173.041C171.92 627.73 170.05 579.696 167.901 531.756C164.723 458.91 160.611 386.063 156.312 313.311C154.629 286.157 152.947 258.91 151.265 231.756C152.853 321.269 156.685 410.689 160.798 500.015C162.293 534.004 163.882 567.992 165.377 601.981C166.499 626.513 166.873 651.138 167.06 675.764H158.181C157.527 608.816 153.788 542.15 150.797 475.296C147.62 405.914 144.722 336.438 143.133 266.869C141.638 203.479 141.171 139.902 142.479 76.4193C141.638 55.82 140.984 35.1272 140.049 14.4343C139.177 21.8001 138.367 29.1971 137.619 36.6253C135.283 60.9699 133.414 85.689 132.012 110.502C132.136 117.555 132.292 124.64 132.479 131.756C133.32 166.494 134.068 201.326 134.535 236.157C135.002 272.955 134.535 309.659 134.722 346.457C135.002 413.03 136.217 480.071 135.189 546.925C137.806 579.509 140.61 612 142.947 644.49C143.788 654.79 144.535 665.277 145.283 675.764H136.498C135.096 659.004 133.974 642.243 132.666 625.483C131.856 642.274 130.797 659.035 129.488 675.764H115.282C116.964 632.974 118.46 590.277 119.768 547.487C118.771 508.723 118.086 469.959 117.712 431.195C111.824 335.502 108.179 239.434 105.375 143.46C103.973 142.992 102.758 141.588 102.291 138.779C91.9167 70.7077 99.5805 0.857498 98.7393 -68.15C94.1597 -51.9515 90.5147 -35.0039 87.7109 -18.0564C88.2094 44.428 89.0505 106.912 90.2344 169.397C91.5428 238.966 93.1317 308.535 95.5617 378.105C97.5244 433.255 100.141 488.404 100.982 543.741C101.637 587.749 101.263 631.944 98.6459 675.764H89.954C91.8232 644.303 92.2905 612.843 92.384 582.037C92.384 525.483 90.1409 469.022 87.9913 412.562C85.4678 347.861 83.7855 282.974 82.3836 218.18C81.1375 161.688 80.1717 105.227 79.4863 48.7976C76.7759 80.3519 75.5609 112.187 75.0936 143.929C74.2525 192.711 75.2805 241.401 76.3086 290.09C77.1498 327.168 77.5236 364.153 77.4301 401.138C80.6078 472.955 83.0378 544.865 85.8417 616.682C86.5894 636.407 87.3371 656.101 88.0847 675.764H79.2059C78.2713 651.731 77.3367 627.699 76.4021 603.667C76.1528 596.738 75.9036 589.809 75.6544 582.88C75.6544 613.872 76.0282 644.865 77.2432 675.764H68.4579C65.2802 593.367 67.5233 510.127 68.4579 427.917C68.5202 419.178 68.5513 410.408 68.5513 401.607C68.3644 396.238 68.1463 390.839 67.8971 385.408C64.439 311.906 60.1398 238.404 56.121 164.902C55.8717 160.283 55.6225 155.664 55.3733 151.045C54.4387 217.618 54.2517 284.191 53.0367 350.67C54.7191 385.034 56.3079 419.49 57.8033 453.854C59.2986 488.123 60.1398 522.206 59.8594 556.569C59.7971 565.558 59.7037 574.547 59.579 583.535C61.2613 614.247 62.3829 644.959 62.5698 675.764H49.2048C49.2671 670.333 49.3294 664.871 49.3917 659.378C49.8591 633.723 50.4198 607.974 50.7937 582.225C49.9837 567.118 49.1114 552.012 48.1767 536.906C47.0552 579.135 45.9337 621.457 45.2794 663.779C45.3418 667.774 45.3729 671.769 45.3729 675.764H25.6526C25.5903 667.399 25.4968 659.004 25.3722 650.577C25.3099 644.959 25.2787 639.309 25.2787 633.629C23.6899 614.341 22.2879 595.052 20.886 575.764C15.6522 503.386 11.6334 430.82 9.95105 358.067C8.73605 305.165 9.39029 252.168 8.17529 199.266C8.11299 197.83 8.08183 196.363 8.08183 194.865C7.8326 198.798 7.61452 202.699 7.4276 206.569C5.37144 244.584 3.87607 282.693 2.56761 320.895C3.68915 354.977 3.87605 389.153 4.24991 423.329C5.09105 507.412 5.09106 591.681 3.22183 675.764H-25.097C-26.2808 624.765 -27.7762 573.798 -29.5831 522.861C-30.8293 486.282 -32.2312 449.703 -33.7889 413.123C-34.5366 396.176 -35.5646 379.228 -36.6862 362.187C-36.9666 394.022 -37.2469 425.764 -37.8077 457.505C-39.0227 530.258 -40.1442 603.011 -41.6396 675.764H-53.3223C-52.9484 627.543 -52.5746 579.228 -52.4811 531.007C-52.2008 457.693 -53.1354 384.565 -54.3504 311.344C-56.1261 202.543 -57.715 93.6478 -55.3784 -15.0601C-57.5592 -7.00767 -59.7711 1.01356 -62.0142 9.00357C-67.9957 62.8425 -69.5846 117.618 -69.2107 172.206C-68.8369 230.633 -66.22 288.966 -63.79 347.393C-61.4534 406.663 -59.958 466.026 -59.3973 525.483C-58.93 575.483 -58.743 625.67 -57.9019 675.764H-79.398C-79.6472 672.518 -79.9276 669.303 -80.2392 666.12C-80.613 663.311 -81.018 660.502 -81.4542 657.693C-83.7907 641.962 -86.5011 626.232 -89.6788 610.783C-90.2395 632.505 -90.9872 654.135 -92.1088 675.764H-106.876C-107.935 640.308 -109.368 604.884 -111.175 569.49C-111.642 573.423 -111.923 577.262 -112.296 581.007C-112.795 587.125 -113.138 593.242 -113.324 599.359C-112.078 624.828 -110.645 650.296 -109.025 675.764H-120.241C-121.175 664.59 -121.829 653.386 -122.203 642.15C-122.671 627.917 -122.764 613.685 -122.203 599.547C-126.783 507.599 -128.652 415.371 -127.718 323.236C-127.718 322.736 -127.749 322.206 -127.811 321.644C-131.113 346.238 -134.104 370.926 -136.783 395.708C-140.241 427.262 -143.139 459.004 -145.662 490.745V394.959C-141.55 356.569 -136.69 318.367 -130.989 280.445C-132.484 260.127 -133.793 239.809 -134.821 219.49C-136.596 183.723 -137.998 148.049 -139.587 112.281C-141.269 73.2358 -143.045 34.0972 -145.662 -4.94775V-73.2998H-142.204C-140.522 -55.572 -139.058 -37.7817 -137.811 -19.929C-132.764 51.1384 -130.428 122.487 -127.157 193.741C-126.658 204.79 -126.129 215.839 -125.568 226.887C-122.11 126.326 -115.194 26.0448 -104.446 -73.2998H-95.4734C-97.218 -57.6319 -98.838 -41.964 -100.333 -26.2961C-101.517 -13.8741 -102.67 -1.42091 -103.791 11.0635C-101.548 -8.41216 -98.5576 -27.7006 -94.7257 -46.6144C-94.788 -55.5408 -94.8191 -64.4359 -94.8191 -73.2998H-85.9403C-85.878 -63.1874 -85.8157 -53.0751 -85.7534 -42.9627C-83.2299 -14.2174 -81.7345 14.5279 -80.9869 43.2732C-77.5599 30.7264 -74.1019 18.1484 -70.6126 5.53915C-68.8369 -10.0976 -66.6873 -25.6406 -64.1638 -41.0901C-63.3227 -46.5208 -59.3038 -46.8953 -57.0607 -44.2736C-56.313 -47.2074 -55.5654 -50.11 -54.8177 -52.9815C-54.6308 -59.7854 -54.4127 -66.5582 -54.1634 -73.2998H-40.1442C-41.8888 -66.1837 -43.6958 -59.0676 -45.565 -51.9515C-45.9388 -39.9665 -46.2504 -27.9815 -46.4996 -15.9964C-46.6865 26.6066 -45.6585 69.1159 -43.7892 111.532C-43.1662 70.0835 -42.325 28.6353 -41.2658 -12.8129C-40.7985 -32.8504 -40.4246 -53.0751 -39.7704 -73.2998H-31.1719C-32.2935 -42.8691 -32.4804 -12.2511 -33.2281 17.7114C-35.1908 93.086 -35.7515 168.554 -36.0319 243.929C-34.6612 264.528 -33.2592 285.096 -31.8262 305.633C-29.3027 341.401 -26.4054 377.262 -24.91 413.123C-22.3866 472.299 -20.237 531.569 -18.4612 590.745C-17.7135 563.872 -17.0593 537 -16.6854 510.034C-15.7508 436.906 -17.0593 363.685 -17.2462 290.558C-17.5266 213.872 -17.7135 137.187 -17.7135 60.5017C-19.3024 15.9324 -20.1435 -28.7305 -19.5827 -73.2998H-8.55431C-8.61661 -57.944 -8.67891 -42.6194 -8.74123 -27.326C-8.80353 1.82504 -8.83469 30.9761 -8.83469 60.1272C-7.15237 108.91 -4.62892 157.599 -2.29239 206.288C-2.16777 208.972 -2.01201 211.657 -1.82509 214.341C0.79184 163.217 4.15645 112.187 8.26874 61.3444C11.166 25.483 14.4372 -10.1912 18.1757 -45.8653C19.1103 -54.9477 19.9514 -64.1238 20.9795 -73.2998H33.3164C33.2541 -67.6818 33.1918 -62.0326 33.1295 -56.3522C33.0672 -42.9315 33.0049 -29.5108 32.9426 -16.0901C34.0018 -17.8379 35.0922 -19.5233 36.2137 -21.1462C35.7775 -38.562 35.1545 -55.9465 34.3445 -73.2998H43.1298C43.1921 -72.8004 43.2233 -72.2698 43.2233 -71.708C43.8464 -58.2249 44.3448 -44.7418 44.7187 -31.2586C47.3356 -33.6931 50.1395 -31.0713 51.1675 -27.2324C51.5414 -25.9215 51.884 -24.5482 52.1956 -23.1125C53.2548 -39.904 54.4698 -56.6331 55.8406 -73.2998H64.8129C63.7536 -60.4409 62.7879 -47.582 61.9156 -34.723C60.7006 -14.6856 59.579 5.25826 58.7379 25.2957C59.766 41.4942 60.0463 57.88 60.5137 74.0785C61.5417 108.816 63.8783 143.46 65.7475 178.105C65.8098 178.791 65.8409 179.478 65.8409 180.165C65.8409 165.059 66.0279 149.952 66.4017 134.846C67.4298 85.1272 70.1402 35.0335 77.804 -13.4683C78.1155 -15.4658 78.4582 -17.4946 78.8321 -19.5545C78.7075 -32.6631 78.614 -45.8029 78.5517 -58.974C78.4894 -63.7805 78.4271 -68.5557 78.3648 -73.2998H87.3371C87.3371 -69.3048 87.3682 -65.2786 87.4305 -61.2212C88.4274 -65.2786 89.5178 -69.3048 90.7017 -73.2998H107.431C107.899 -50.0788 107.338 -26.7642 106.684 -3.54325C105.936 25.0148 105.095 53.9474 106.123 82.5991C107.618 81.6628 109.487 81.85 110.889 83.2545C111.824 76.232 112.572 69.2096 113.132 62.1871C114.815 39.1534 115.002 15.9324 114.347 -7.19494C113.787 -29.2923 112.478 -51.2961 110.983 -73.2998H129.114C129.052 -72.9877 129.021 -72.6444 129.021 -72.2698C126.217 -43.15 129.395 -13.7492 129.582 15.3706C129.582 19.1159 129.613 22.8612 129.675 26.6066C131.638 7.87997 133.974 -10.8466 137.059 -29.1987C135.75 -43.9927 133.974 -58.7867 131.638 -73.2998H140.703C141.513 -68.306 142.261 -63.2811 142.947 -58.2249C144.193 -63.3435 145.595 -68.3685 147.152 -73.2998H158.648C154.723 -23.4871 152.48 26.6066 151.358 76.7002C154.255 143.367 158.928 209.846 162.947 276.326C167.34 348.985 171.639 421.644 175.097 494.397ZM-101.268 121.738C-98.7134 111.126 -96.0964 100.577 -93.4172 90.0897C-93.7287 62.3744 -94.0091 34.659 -94.2584 6.94364C-94.6945 10.3768 -95.0995 13.7788 -95.4734 17.1496C-99.3053 51.7938 -100.801 86.7189 -101.268 121.738ZM-115.194 187.468C-113.511 178.916 -111.798 170.364 -110.053 161.813C-110.116 157.131 -110.147 152.449 -110.147 147.768C-110.24 123.329 -109.866 98.7039 -108.745 74.2657C-111.424 111.906 -113.574 149.64 -115.194 187.468ZM-97.3426 467.805C-100.333 428.011 -102.95 388.217 -104.819 348.236C-106.408 314.434 -107.249 280.633 -108.184 246.738C-108.62 233.067 -108.994 219.397 -109.306 205.726C-112.172 221.082 -114.882 236.532 -117.437 252.075C-118.06 275.795 -118.496 299.515 -118.745 323.236C-116.44 351.575 -114.259 379.915 -112.203 408.254C-109.306 448.704 -106.595 489.153 -104.352 529.603C-103.978 530.04 -103.636 530.602 -103.324 531.288C-101.268 536.064 -99.3053 541.026 -97.5295 546.082C-97.3426 519.959 -97.3426 493.929 -97.3426 467.805ZM-97.8099 576.513C-99.3053 570.895 -100.988 565.277 -102.763 559.846C-101.393 585.751 -100.24 611.688 -99.3053 637.655C-98.5576 617.337 -98.0903 596.925 -97.8099 576.513ZM-112.951 535.783C-114.571 506.195 -116.378 476.638 -118.371 447.112C-117.811 479.634 -116.938 512.156 -115.754 544.678C-114.944 541.619 -114.01 538.654 -112.951 535.783ZM-91.7349 204.977C-92.1711 178.885 -92.5761 152.824 -92.9499 126.794C-95.8161 139.216 -98.5576 151.731 -101.175 164.341C-100.988 181.382 -100.614 198.423 -100.146 215.371C-99.2118 254.228 -98.0903 293.086 -96.5014 331.85C-95.3799 289.528 -93.2303 247.299 -91.7349 204.977ZM-88.4638 576.138C-88.5884 574.141 -88.7441 572.143 -88.9311 570.146C-88.9934 571.394 -89.0245 572.643 -89.0245 573.891C-88.8376 574.64 -88.6507 575.389 -88.4638 576.138ZM-81.2672 555.726C-84.0711 491.026 -86.3141 426.232 -88.1834 361.344C-88.9311 395.614 -88.8376 429.977 -88.7441 464.247C-86.5011 494.771 -83.9776 525.296 -81.2672 555.726ZM-74.4446 305.726C-77.7157 223.329 -80.613 139.528 -75.1922 57.1309C-76.9369 63.6852 -78.6815 70.2395 -80.4261 76.7938C-80.1457 120.333 -81.2672 163.966 -82.7626 207.599C-81.5476 274.64 -79.9588 341.775 -77.9026 408.816C-75.0988 495.801 -71.5472 582.786 -66.8742 669.584C-66.8742 668.273 -66.9053 666.931 -66.9677 665.558C-67.8088 604.228 -67.9023 542.805 -68.8369 481.382C-69.678 422.768 -72.108 364.247 -74.4446 305.726ZM-45.0042 243.18C-45.565 235.002 -46.0946 226.794 -46.5931 218.554C-46.2192 245.895 -45.8454 273.236 -45.3781 300.577C-45.2535 281.475 -45.1288 262.343 -45.0042 243.18ZM-6.40468 317.243C-6.77853 305.446 -7.21468 293.679 -7.71313 281.944C-7.96237 275.826 -8.21161 269.678 -8.46083 263.498C-8.33621 299.078 -8.21161 334.659 -8.08699 370.24C-7.58853 352.574 -7.02776 334.909 -6.40468 317.243ZM-4.34854 585.595C-4.847 612.499 -5.22084 639.403 -5.47008 666.307C-4.9093 639.403 -4.53546 612.499 -4.34854 585.595ZM21.4468 11.6253C22.2568 8.87872 23.1291 6.19458 24.0637 3.57285C24.0637 -2.91903 24.0637 -9.41092 24.0637 -15.9028C23.8768 -14.0301 23.6899 -12.1263 23.5029 -10.1912C22.8176 -2.95024 22.1322 4.32191 21.4468 11.6253ZM27.9891 266.026C27.8645 261.906 27.771 257.818 27.7087 253.76C26.0264 182.131 24.6245 110.502 24.2506 38.8725C21.5403 53.292 20.0449 68.086 19.0168 81.4755C15.5587 124.266 16.3064 167.618 17.3345 210.689C18.7364 267.056 17.8018 323.423 19.4841 379.79C20.6991 421.925 22.6618 463.966 25.0918 506.007C25.2164 486.906 25.3722 467.805 25.5591 448.704C26.1199 387.78 26.9299 326.887 27.9891 266.026ZM36.4006 658.067C35.9333 608.91 35.0921 559.846 33.9706 510.689C33.7837 547.674 33.7837 584.753 34.0641 621.738C34.0641 625.233 34.0952 628.698 34.1575 632.131C34.8429 640.808 35.5906 649.453 36.4006 658.067ZM36.7745 5.44551C36.7122 3.01105 36.6498 0.545387 36.5875 -1.95149C35.3414 0.670235 34.1575 3.4168 33.036 6.28821C34.1575 5.25825 35.466 4.97735 36.7745 5.44551ZM37.0548 273.236C37.0548 271.426 37.0548 269.584 37.0548 267.711C36.9925 268.585 36.9614 269.459 36.9614 270.333C36.9614 271.332 36.9925 272.299 37.0548 273.236ZM42.1018 439.247C41.541 430.82 41.0425 422.393 40.6064 413.966C40.9179 427.699 41.2606 441.432 41.6344 455.165C41.7591 449.859 41.9148 444.553 42.1018 439.247ZM49.7656 23.7039C49.0179 11.1571 47.616 -1.10879 45.186 -13.0002C46.5879 48.3294 46.3075 109.753 46.0271 171.27C46.6814 122.112 47.616 72.7676 49.7656 23.7039ZM123.039 112C122.728 101.014 122.447 90.0273 122.198 79.041C122.074 74.7963 121.98 70.5828 121.918 66.4006C120.422 83.5354 117.805 100.296 113.506 115.932C114.721 160.876 116.123 205.82 117.805 250.764C117.93 250.826 118.055 250.889 118.179 250.951C118.429 239.465 118.678 227.949 118.927 216.401C119.862 181.569 121.077 146.738 123.039 112ZM146.872 -32.4758C146.81 -32.1637 146.747 -31.8516 146.685 -31.5395C146.498 -30.4159 146.311 -29.2923 146.124 -28.1687C146.249 -26.9827 146.342 -25.8279 146.405 -24.7043C146.592 -27.326 146.747 -29.9165 146.872 -32.4758Z" fill="white" fill-opacity="0.5"/>
<path fill-rule="evenodd" clip-rule="evenodd" d="M340.079 605.165C341.397 628.698 342.558 652.231 343.562 675.764H334.525C333.333 652.293 332.204 628.791 331.137 605.258C330.07 586.282 328.94 567.306 327.748 548.329C329.537 588.872 329.631 629.603 326.43 669.959C326.242 672.955 325.207 674.828 323.889 675.764H320.124C318.806 674.828 317.771 672.955 317.488 670.052C308.169 564.153 304.31 457.505 302.145 350.858C301.518 344.366 300.89 337.905 300.263 331.475C298.568 313.311 298.098 295.333 297.439 277.075C296.592 250.108 295.65 223.049 294.521 196.082C291.697 129.696 288.402 62.9362 281.437 -2.88783C279.178 -23.768 276.731 -45.0227 272.871 -65.4346C277.86 -17.6818 277.86 30.9137 276.354 79.1347C276.166 83.4418 276.009 87.7801 275.883 92.1496C276.323 98.9536 276.762 105.758 277.201 112.562C284.92 229.696 290.097 347.112 297.909 464.153C301.392 515.651 304.781 567.337 304.687 619.116C304.687 637.843 304.216 656.85 302.992 675.764H294.144C296.686 640.277 296.027 604.135 294.803 569.21C293.015 518.741 289.061 468.461 285.955 418.18C282.378 360.408 279.649 302.449 276.354 244.678C274.974 221.02 273.562 197.393 272.118 173.798C270.801 202.543 269.671 231.195 269.389 259.94C269.012 291.494 270.236 323.049 271.083 354.603C271.93 387 272.871 419.303 273.813 451.7C275.601 514.528 277.107 577.356 278.519 640.183C278.801 651.981 279.272 663.872 279.554 675.764H270.612C270.487 670.583 270.33 665.371 270.142 660.127C268.353 599.828 267.412 539.434 265.623 479.041C263.835 414.341 261.858 349.64 260.446 284.94C259.223 224.828 264.023 164.622 266.471 104.696C266.596 100.514 266.753 96.3319 266.941 92.1496C266 78.4168 265.027 64.6528 264.023 50.8575C262.235 26.0448 262.235 1.04477 260.917 -23.768C260.792 -26.0776 260.666 -28.4184 260.541 -30.7904C260.227 -29.6044 259.944 -28.3872 259.693 -27.1388C260.541 10.4081 257.717 48.1422 256.022 85.5017C254.328 124.078 252.948 162.718 251.881 201.419C252.383 248.423 253.199 295.396 254.328 342.337C255.144 375.358 256.117 408.379 257.246 441.401C257.999 464.902 259.223 488.311 259.693 511.906C260.729 555.633 260.823 599.547 264.212 643.18C265.153 654.041 266.188 664.996 267.6 675.764H245.762C245.951 622.768 243.315 569.771 242.28 516.775C242.28 515.714 242.28 514.684 242.28 513.685C241.244 568.086 238.515 622.299 232.208 675.764H210.276C210.527 671.145 210.747 666.494 210.935 661.813C209.335 667.524 202.463 666.588 202.369 659.004C201.522 605.071 200.393 551.045 199.357 497.019C198.416 556.756 198.039 616.681 202.275 675.764H185.52C186.179 657.786 186.462 639.809 186.367 622.206C186.273 566.494 183.167 510.97 180.626 455.352C177.708 393.367 177.237 331.195 176.013 269.022C174.601 196.082 172.907 123.142 170.46 50.2957C169.236 15.277 167.542 -19.7417 166.224 -54.7605C166.036 -60.8466 165.942 -67.0264 165.753 -73.2998H174.696C175.26 -59.3485 175.731 -45.3972 176.296 -31.4459C178.367 17.056 180.061 65.4642 181.379 113.966C183.073 174.547 184.391 235.221 185.52 295.895C185.238 231.85 185.426 167.805 186.556 103.76C187.026 74.6403 187.968 45.6141 188.627 16.4942C189.003 -2.51328 189.003 -21.6144 189.662 -40.6219C189.944 -48.2998 190.321 -55.8841 190.792 -63.4683C190.227 -66.7767 189.631 -70.0539 189.003 -73.2998H200.487C200.236 -70.0539 199.985 -66.8079 199.734 -63.562C201.522 -50.2661 202.652 -36.783 203.405 -23.3934C205.381 9.47173 205.57 42.5242 205.381 75.3893C205.381 78.0111 205.35 80.664 205.287 83.3481C205.413 81.85 205.538 80.3831 205.664 78.9474C208.017 51.3257 210.37 23.6103 213.665 -3.82415C213.978 -19.3048 214.292 -34.8167 214.606 -50.3597C214.794 -57.9752 214.888 -65.6219 214.888 -73.2998H223.831C223.831 -69.4296 223.799 -65.5595 223.736 -61.6893C224.74 -65.6219 225.87 -69.4921 227.125 -73.2998H241.056C241.244 -72.4259 241.433 -71.552 241.621 -70.6781C241.809 -71.552 241.997 -72.4259 242.186 -73.2998H251.598C250.594 -67.3073 249.779 -61.2524 249.151 -55.135C249.402 -56.1338 249.684 -57.1637 249.998 -58.2249C251.692 -63.7492 255.928 -61.783 257.623 -57.7567C257.748 -58.0688 257.842 -58.3497 257.905 -58.5994C257.215 -63.5932 256.336 -68.4933 255.269 -73.2998H280.59C284.543 -54.105 286.991 -34.2549 289.156 -14.5919C292.827 18.1796 295.556 51.1384 297.721 84.2845C295.368 31.7564 293.862 -20.6781 293.485 -73.2998H302.71C305.063 -14.8728 306.475 43.5541 307.416 102.075C310.428 164.996 314.476 227.824 318.806 290.558C320.186 309.971 321.567 329.416 322.948 348.891C322.132 301.7 321.724 254.54 321.724 207.412C321.912 113.779 323.795 20.1459 328.03 -73.2998H337.067C331.231 52.4493 329.725 178.667 331.231 304.696C332.455 404.977 335.561 505.165 340.079 605.165ZM195.216 247.768C195.216 245.583 195.184 243.398 195.121 241.213C195.027 227.543 194.745 213.779 194.651 200.108C194.525 222.83 194.463 245.583 194.463 268.367C194.714 261.5 194.965 254.634 195.216 247.768ZM196.533 58.629C195.969 86.5941 195.529 114.559 195.216 142.524C195.498 129.509 195.874 116.494 196.063 103.386C196.345 88.498 196.439 73.6103 196.533 58.629ZM210.182 453.854C209.994 444.49 209.805 435.158 209.617 425.857C208.394 363.03 208.676 300.202 209.147 237.374C209.46 202.106 209.931 166.806 210.558 131.475C208.927 155.133 207.484 178.854 206.229 202.637C205.476 217.992 204.754 233.379 204.064 248.798C204.252 258.91 204.409 269.022 204.534 279.135C205.664 368.086 207.546 457.037 209.241 545.989C208.958 515.277 209.335 484.565 210.182 453.854ZM212.065 624.828C211.437 614.902 210.904 604.946 210.464 594.959C210.213 588.279 209.994 581.569 209.805 574.828C210.307 601.544 210.778 628.23 211.217 654.884C211.594 644.896 211.876 634.877 212.065 624.828ZM221.854 375.015C220.724 400.483 219.783 425.857 219.124 451.326C219.312 460.876 219.532 470.427 219.783 479.977C220.16 453.292 220.724 426.7 221.289 400.015C221.477 391.713 221.666 383.379 221.854 375.015ZM232.584 292.15C232.584 294.21 232.553 296.269 232.49 298.329C231.267 354.228 229.855 410.127 228.913 466.12C228.16 517.337 227.596 569.022 228.537 620.614C229.478 608.067 230.263 595.52 230.89 582.974C235.691 486.157 232.867 389.153 232.584 292.15ZM237.479 -40.4346C236.475 -48.1125 235.251 -55.6968 233.808 -63.1874C227.972 -43.4309 224.772 -22.0826 222.324 -0.827888C222.262 3.85376 222.23 8.5042 222.23 13.1234C222.23 29.4156 221.383 45.7077 221.007 61.9998C220.63 78.292 220.285 94.6153 219.971 110.97C219.281 143.429 218.779 175.889 218.465 208.348C218.277 225.264 218.089 242.181 217.9 259.097C217.963 257.225 218.026 255.383 218.089 253.573C219.971 200.483 221.195 147.206 225.337 94.3968C227.596 65.0897 230.608 35.7826 235.314 7.13091C235.408 -8.7867 235.973 -24.7043 237.479 -40.4346ZM320.03 585.034C319.653 551.326 317.676 517.618 314.947 484.004C316.264 517.711 317.959 551.419 320.03 585.034ZM322.759 472.019C318.994 417.992 315.041 364.06 311.276 310.127C310.899 304.821 310.523 299.515 310.146 294.21C310.397 313.123 310.711 332.069 311.087 351.045C311.276 352.543 311.433 354.01 311.558 355.446C313.064 370.146 314.476 384.846 315.982 399.64C318.429 423.704 320.688 447.861 322.759 472.019Z" fill="white" fill-opacity="0.5"/>
<path fill-rule="evenodd" clip-rule="evenodd" d="M590.741 675.764H582.116C584.178 642.431 584.741 609.004 584.741 576.419C584.741 519.865 582.584 463.311 580.334 406.944C577.897 342.15 576.209 277.356 574.709 212.468C573.459 156.039 572.49 99.5779 571.803 43.086C569.177 74.6403 567.959 106.569 567.396 138.311C566.646 187 567.584 235.689 568.709 284.378C569.553 321.457 569.928 358.442 569.834 395.52C573.021 467.337 575.365 539.153 578.178 611.064C579.053 632.599 579.897 654.166 580.709 675.764H571.803C570.803 649.796 569.803 623.86 568.802 597.955C568.49 591.026 568.209 584.128 567.959 577.262C567.959 610.127 568.427 642.992 569.834 675.764H561.021C557.458 591.494 559.896 506.288 560.74 422.299C560.865 413.498 560.927 404.728 560.927 395.989C560.677 390.558 560.427 385.127 560.177 379.696C556.802 306.195 552.489 232.786 548.458 159.284C548.207 154.665 547.957 150.046 547.707 145.427C546.676 211.906 546.582 278.479 545.364 344.959C547.051 379.416 548.645 413.779 550.145 448.236C551.645 482.412 552.395 516.588 552.208 550.857C552.145 559.846 552.051 568.835 551.926 577.824C553.614 610.408 554.833 643.086 554.927 675.764H541.426C541.488 668.398 541.582 661.063 541.707 653.76C542.176 628.011 542.738 602.262 543.02 576.607C542.27 561.438 541.426 546.301 540.488 531.195C539.269 573.517 538.238 615.839 537.582 658.067C537.644 663.997 537.676 669.896 537.676 675.764H517.987C517.862 665.464 517.737 655.196 517.612 644.959C517.549 639.278 517.487 633.629 517.424 628.011C515.831 608.723 514.424 589.341 513.018 570.052C507.768 497.674 503.83 425.108 502.142 352.449C500.924 299.453 501.486 246.55 500.361 193.648C500.298 192.15 500.267 190.683 500.267 189.247C500.017 193.117 499.798 196.987 499.611 200.857C497.548 238.966 496.048 277.075 494.736 315.183C495.767 349.266 496.048 383.442 496.423 417.618C497.267 503.667 497.267 589.809 495.204 675.764H467.078C465.953 622.861 464.359 570.052 462.484 517.15C461.171 480.57 459.734 444.022 458.171 407.505C457.515 390.464 456.483 373.517 455.358 356.569C455.077 388.311 454.702 420.052 454.233 451.794C452.921 525.108 451.796 598.329 450.296 671.55C450.296 672.986 450.264 674.391 450.202 675.764H438.576C438.951 625.577 439.42 575.483 439.514 525.296C439.701 452.075 438.857 378.854 437.639 305.633C435.857 196.925 434.263 87.9362 436.607 -20.7717C434.42 -12.7193 432.201 -4.66685 429.951 3.38559C423.95 57.1309 422.263 112 422.638 166.494C423.106 224.921 425.732 283.348 428.076 341.681C430.513 401.045 432.013 460.314 432.576 519.771C433.045 571.738 433.232 623.798 434.076 675.764H412.981C412.543 670.645 412.075 665.527 411.575 660.408C411.2 657.599 410.825 654.821 410.45 652.075C408.106 636.251 405.387 620.614 402.105 605.165C401.543 628.667 400.699 652.262 399.48 675.764H385.136C384.01 638.436 382.51 601.138 380.635 563.872C380.166 567.711 379.791 571.55 379.51 575.389C379.01 581.444 378.635 587.53 378.385 593.648C379.76 621.051 381.354 648.423 383.167 675.764H372.01C370.885 662.749 370.041 649.547 369.572 636.438C369.103 622.299 369.01 608.067 369.478 593.835C364.978 501.887 363.009 409.753 364.041 317.618C363.978 317.056 363.947 316.494 363.947 315.932C360.634 340.527 357.634 365.215 354.946 389.996C349.04 444.116 344.539 498.517 341.164 553.105C346.977 594.49 353.352 635.783 362.728 675.764H353.259C350.634 663.966 348.196 652.168 345.946 640.277C343.414 626.887 341.164 613.404 339.008 599.828L338.539 467.524C343.977 402.73 351.102 338.311 360.759 274.734C359.259 254.416 357.853 234.191 356.915 213.779C355.04 178.105 353.634 142.337 352.134 106.569C349.508 46.5504 346.602 -13.6556 340.977 -73.2998H349.977C351.415 -57.4446 352.727 -41.5582 353.915 -25.6406C358.978 45.4268 361.228 116.775 364.603 188.03C365.103 199.141 365.634 210.221 366.197 221.27C369.572 122.58 376.322 24.1721 386.729 -73.2998H395.73C394.23 -59.567 392.823 -45.8029 391.511 -32.0077C390.261 -19.5857 389.104 -7.13251 388.042 5.35188C390.292 -14.1238 393.292 -33.4122 397.136 -52.326C397.074 -59.3173 397.042 -66.3085 397.042 -73.2998H405.949C406.012 -65.0601 406.074 -56.8204 406.137 -48.5807C408.668 -19.929 410.168 8.8163 410.918 37.6553C414.356 25.046 417.825 12.468 421.325 -0.0788345C423.106 -15.7155 425.169 -31.2586 427.794 -46.8017C428.638 -52.1388 432.576 -52.6069 434.92 -49.9852C435.67 -52.8566 436.42 -55.7592 437.17 -58.6931C437.295 -63.562 437.451 -68.4309 437.639 -73.2998H450.483C449.17 -68.0564 447.827 -62.8129 446.452 -57.5695C446.077 -45.5844 445.764 -33.5994 445.514 -21.6144C445.327 20.895 446.358 63.4043 448.233 105.82C448.858 64.3719 449.671 22.9237 450.671 -18.5245C451.139 -36.6893 451.514 -55.0414 452.077 -73.2998H460.702C459.671 -44.7418 459.484 -16.0901 458.734 11.9998C456.765 87.3744 456.296 162.843 455.921 238.311C457.358 258.848 458.796 279.416 460.234 300.015C462.671 335.783 465.578 371.55 467.172 407.412C469.609 466.682 471.859 525.858 473.641 585.127C474.391 558.255 475.047 531.288 475.328 504.322C476.266 431.288 475.047 357.974 474.766 284.846C474.578 208.161 474.391 131.569 474.391 54.8837C472.891 12.1871 472.047 -30.6032 472.422 -73.2998H483.485C483.422 -59.8791 483.391 -46.4271 483.391 -32.944C483.329 -3.79294 483.297 25.3581 483.297 54.5092C484.985 103.198 487.516 151.887 489.86 200.577C489.985 203.261 490.11 205.945 490.235 208.629C492.954 157.505 496.33 106.475 500.455 55.6328C503.361 19.865 506.643 -15.9028 510.299 -51.4833C511.049 -58.7867 511.799 -65.9964 512.549 -73.2998H525.487C525.425 -69.5545 525.394 -65.8092 525.394 -62.0638C525.269 -48.6431 525.206 -35.2224 525.206 -21.8017C526.206 -23.5495 527.269 -25.2349 528.394 -26.8579C528.019 -42.3385 527.488 -57.8192 526.8 -73.2998H535.707C536.207 -61.1899 536.613 -49.0801 536.926 -36.9702C539.551 -39.4047 542.363 -36.6893 543.395 -32.944C543.832 -31.5707 544.207 -30.1974 544.52 -28.8242C545.457 -43.6806 546.52 -58.5058 547.707 -73.2998H556.708C555.833 -62.3135 555.02 -51.3273 554.27 -40.341C552.958 -20.3972 551.926 -0.359734 551.083 19.5841C552.114 35.8762 552.301 52.262 552.864 68.4605C553.895 103.105 556.145 137.843 558.114 172.487C558.177 173.173 558.208 173.86 558.208 174.547C558.208 159.378 558.364 144.241 558.677 129.135C559.802 79.5092 562.521 29.3219 570.209 -19.0863C570.521 -21.1462 570.834 -23.2062 571.146 -25.2661C571.021 -38.3747 570.928 -51.4833 570.865 -64.5919C570.865 -67.5258 570.834 -70.4284 570.771 -73.2998H579.772C579.772 -71.1775 579.772 -69.0551 579.772 -66.9328C580.334 -69.0551 580.897 -71.1775 581.459 -73.2998H591.023C586.522 -57.2886 582.96 -40.5283 580.053 -23.768C580.553 38.7164 581.428 101.201 582.678 163.685C583.991 233.255 585.491 302.917 588.022 372.393C589.991 427.637 592.523 482.786 593.366 538.03C594.116 583.91 593.741 630.071 590.741 675.764ZM390.573 116.12C393.136 105.508 395.761 94.9274 398.449 84.3781C398.074 56.6627 397.793 28.9474 397.605 1.23203C397.167 4.66524 396.761 8.09845 396.386 11.5317C392.542 46.0822 390.948 81.101 390.573 116.12ZM376.604 181.85C378.229 173.236 379.916 164.684 381.667 156.195C381.667 151.513 381.635 146.8 381.573 142.056C381.573 117.618 381.948 93.086 383.073 68.5541C380.385 106.257 378.229 144.022 376.604 181.85ZM394.417 462.187C391.511 422.393 388.886 382.505 387.011 342.524C385.323 308.723 384.573 274.921 383.542 241.12C383.167 227.387 382.823 213.685 382.51 200.015C379.635 215.433 376.916 230.914 374.354 246.457C373.666 270.115 373.197 293.804 372.947 317.524C375.26 345.864 377.479 374.235 379.604 402.637C382.51 442.992 385.136 483.442 387.479 523.891C387.854 524.391 388.167 524.952 388.417 525.577C390.573 530.352 392.542 535.314 394.324 540.371C394.511 514.341 394.511 488.217 394.417 462.187ZM393.949 570.895C392.448 565.183 390.855 559.659 389.073 554.135C390.386 580.102 391.542 606.07 392.542 632.037C393.292 611.625 393.667 591.213 393.949 570.895ZM378.854 530.165C377.229 500.577 375.385 470.989 373.322 441.401C373.885 473.985 374.791 506.507 376.041 538.966C376.854 535.907 377.791 532.974 378.854 530.165ZM400.136 199.266C399.699 173.236 399.293 147.175 398.918 121.082C396.042 133.567 393.292 146.113 390.667 158.723C390.855 175.67 391.23 192.711 391.605 209.659C392.636 248.517 393.761 287.374 395.355 326.138C396.48 283.816 398.543 241.588 400.136 199.266ZM403.418 570.427C403.23 568.429 403.043 566.432 402.855 564.434C402.855 565.683 402.855 566.962 402.855 568.273C403.043 568.96 403.23 569.678 403.418 570.427ZM410.543 550.108C407.731 485.314 405.48 420.52 403.699 355.726C402.949 389.902 403.043 424.266 403.137 458.535C405.387 489.153 407.918 519.584 410.543 550.108ZM417.481 300.015C414.106 217.618 411.293 133.816 416.731 51.5129C414.918 58.0048 413.168 64.5279 411.481 71.0822C411.762 114.622 410.637 158.255 409.137 201.887C410.356 269.022 411.95 336.063 414.012 403.105C416.731 490.09 420.294 577.075 425.075 663.872C425.013 662.562 424.982 661.251 424.982 659.94C424.138 598.517 424.044 537.093 423.106 475.67C422.169 417.056 419.825 358.535 417.481 300.015ZM447.014 237.562C446.452 229.322 445.889 221.113 445.326 212.936C445.702 240.183 446.17 267.524 446.545 294.865C446.733 275.764 446.889 256.663 447.014 237.562ZM485.641 311.532C485.329 299.796 484.923 288.061 484.423 276.326C484.173 270.146 483.891 263.997 483.579 257.88C483.704 293.461 483.829 329.041 483.954 364.622C484.454 346.894 485.016 329.197 485.641 311.532ZM487.798 579.884C487.298 606.788 486.923 633.723 486.673 660.689C487.235 633.785 487.61 606.85 487.798 579.884ZM513.674 5.91368C514.487 3.16711 515.362 0.482971 516.299 -2.13876C516.299 -8.63064 516.299 -15.1225 516.299 -21.6144C516.112 -19.6793 515.924 -17.7442 515.737 -15.8092C515.049 -8.56821 514.362 -1.32727 513.674 5.91368ZM520.237 260.314C520.112 256.257 519.987 252.168 519.862 248.049C518.174 176.419 516.862 104.79 516.393 33.1609C513.768 47.5803 512.268 62.468 511.143 75.7639C507.768 118.648 508.424 161.906 509.549 204.977C510.955 261.344 510.018 317.805 511.612 374.172C512.924 416.307 514.799 458.348 517.331 500.296C517.456 481.195 517.581 462.094 517.706 442.992C518.268 382.131 519.112 321.238 520.237 260.314ZM528.581 652.356C528.113 603.292 527.269 554.135 526.238 505.071C526.05 542.056 526.05 579.041 526.238 616.026C526.3 619.522 526.331 623.017 526.331 626.513C527.081 635.127 527.831 643.741 528.581 652.356ZM529.05 -0.172462C528.988 -2.66934 528.925 -5.13501 528.863 -7.56947C527.55 -4.94775 526.363 -2.23238 525.3 0.576599C526.331 -0.453362 527.738 -0.734261 529.05 -0.172462ZM529.331 267.618C529.269 265.745 529.238 263.904 529.238 262.093C529.238 262.905 529.238 263.748 529.238 264.622C529.238 265.62 529.269 266.619 529.331 267.618ZM534.3 433.629C533.8 425.202 533.332 416.775 532.894 408.348C533.207 422.081 533.519 435.783 533.832 449.453C534.019 444.21 534.175 438.935 534.3 433.629ZM542.082 17.9923C541.238 5.53915 539.926 -6.8204 537.394 -18.7118C538.801 42.7114 538.519 104.135 538.332 165.558C538.894 116.401 539.926 67.1496 542.082 17.9923Z" fill="white" fill-opacity="0.5"/>
<path d="M516 199.043L293.486 -2H161.389L-54 192.606V315.819L164.239 513H290.636L516 309.382V199.043Z" fill="#FFC26F"/>
<path d="M125 62.5067L339.748 82L385 -10.5067L170.252 -30L125 62.5067Z" fill="#F79139"/>
<g opacity="0.4">
<g style="mix-blend-mode:multiply">
<path d="M140.319 37.3148C127.459 37.3148 117 47.7186 117 60.5732C117 73.4279 127.459 83.8316 140.319 83.8316C153.18 83.8316 163.588 73.4279 163.588 60.5732C163.588 47.7186 153.18 37.3148 140.319 37.3148Z" fill="#60544C"/>
</g>
</g>
<path d="M143.131 32C130.398 32 120.044 42.3113 120.044 55.0518C120.044 67.7923 130.398 78.1036 143.131 78.1036C155.864 78.1036 166.169 67.7923 166.169 55.0518C166.169 42.3113 155.864 32 143.131 32Z" fill="#FFF9EE"/>
<path d="M143.567 40.6989C135.373 40.6989 128.747 47.127 128.747 55.0273C128.747 62.9767 135.373 69.4049 143.567 69.4049C151.71 69.4049 158.336 62.9767 158.336 55.0273C158.336 47.127 151.71 40.6989 143.567 40.6989Z" fill="#CE2E2E"/>
<path opacity="0.7" d="M144.637 47.5205C144.603 47.5548 144.551 47.589 144.483 47.6233C140.105 49.7299 139.384 53.5321 140.569 56.5121C142.217 60.5712 147.47 63.0888 151.538 57.3342C155.504 51.7337 151.538 44.4377 144.637 47.5205Z" fill="#FF8683"/>
<g style="mix-blend-mode:multiply" opacity="0.4">
<path d="M231.006 57.5422C224.24 59.8101 219.476 65.6178 218.86 71.5558L168.072 87.6686C165.63 88.4705 164.827 92.4181 165.685 94.8879C166.515 97.2735 169.615 99.8932 172.002 99.0631L221.904 80.3963C226.062 84.6741 233.4 86.2758 240.084 83.8953C248.563 81.0184 258.474 71.5626 255.986 63.7053C253.077 55.9863 239.43 54.637 231.006 57.5422Z" fill="#60544C"/>
</g>
<path d="M235.654 52.8862C228.904 55.1766 224.139 61.004 223.508 66.9494L172.849 83.2299C170.412 84.0399 169.6 87.9936 170.448 90.4631C171.268 92.8484 174.35 95.4613 176.73 94.6232L226.515 75.789C230.645 80.0583 237.953 81.6394 244.62 79.2367C253.078 76.3316 262.983 66.8371 260.527 58.98C257.652 51.2625 244.056 49.953 235.654 52.8862Z" fill="#DBDAD9"/>
<path d="M237.692 54.6716C230.675 56.9855 226.264 63.895 228.14 69.9352C230.436 75.8392 238.263 78.6084 245.252 76.2106C252.157 73.84 260.272 66.1517 258.228 59.7476C255.792 53.424 244.597 52.301 237.692 54.6716Z" fill="#C1BFBD"/>
<path opacity="0.2" d="M-44.2834 347.776C-86.6276 361.271 -109.746 406.06 -96.0636 447.708C-82.3813 489.356 -36.9704 512.274 5.25584 498.779C47.4821 485.284 70.6004 440.495 56.9181 398.847C43.2359 357.199 -2.05709 334.281 -44.2834 347.776Z" fill="#0A0705"/>
<path d="M-36.1612 335.629C-78.3786 349.305 -101.61 394.577 -87.9306 436.784C-74.2512 479.109 -28.8498 502.217 13.3675 488.541C55.5848 474.865 78.8162 429.474 65.0189 387.268C51.3395 345.061 6.05611 321.953 -36.1612 335.629Z" fill="#FFF9EE"/>
<path d="M-32.4352 347.227C-68.2333 358.794 -87.9637 397.272 -76.2673 433.034C-64.689 468.915 -26.2916 488.508 9.62463 476.941C45.4228 465.256 65.0349 426.897 53.4566 391.016C41.8784 355.253 3.36295 335.661 -32.4352 347.227Z" fill="#E8DDCD"/>
<path d="M-29.3657 356.951C-59.8035 366.79 -76.469 399.432 -66.6317 429.99C-56.7944 460.433 -24.042 477.101 6.39574 467.262C36.9492 457.423 53.6148 424.666 43.7775 394.223C33.8245 363.781 1.18779 346.997 -29.3657 356.951Z" fill="#FFC639"/>
<path d="M-29.0991 356.941C-58.9156 366.521 -75.6873 397.685 -67.3014 427.349C-56.5861 423.886 16.6738 398.493 42.5303 389.144C30.7668 361.904 -0.0979156 347.591 -29.0991 356.941Z" fill="#FFDF9F"/>
<path d="M-12.3214 389.611C-11.9601 387.44 -10.5147 385.269 -7.74426 383.7C4.06001 376.825 18.5142 403.604 3.57823 404.931C-4.13068 405.534 -13.6464 396.849 -12.3214 389.611Z" fill="#FFC639"/>
<path d="M13.6995 373.472C0.912541 379.053 24.4163 398.414 30.9924 387.367C36.4726 378.256 24.1727 370.283 15.1609 372.903C14.6738 373.055 14.1867 373.245 13.6995 373.472Z" fill="#FFC639"/>
<path d="M-20.4168 363.078C-30.4368 371.642 -3.28952 383.279 -0.493229 371.422C1.83701 361.541 -11.7949 357.369 -19.2516 362.2C-19.64 362.492 -20.0284 362.785 -20.4168 363.078Z" fill="#FFC639"/>
<path d="M21.6905 451.179C14.7151 457.354 -3.58085 452.061 0.307045 441.365C5.56713 427.251 32.4393 441.806 21.6905 451.179Z" fill="#F2A620"/>
<path d="M30.7635 407.332C37.4742 416.001 35.2374 440.542 20.8741 427.844C16.7535 424.181 14.7521 417.1 16.989 411.85C19.2259 406.966 26.5252 401.838 30.7635 407.332Z" fill="#F2A620"/>
<path opacity="0.2" d="M415.064 -22.4264C377.051 -10.1656 356.222 30.6073 368.546 68.6043C380.812 106.543 421.602 127.364 459.615 115.103C497.628 102.784 518.4 62.0112 506.134 24.0143C493.81 -13.9248 453.019 -34.7451 415.064 -22.4264Z" fill="#0A0705"/>
<path d="M416.069 -29.4776C378.056 -17.1594 357.227 23.6122 369.551 61.5501C381.817 99.5457 422.607 120.365 460.62 108.047C498.633 95.7867 519.404 55.015 507.138 17.0194C494.814 -20.9763 454.024 -41.738 416.069 -29.4776Z" fill="#FFF9EE"/>
<path fill-rule="evenodd" clip-rule="evenodd" d="M492.767 22.024C502.605 52.277 485.938 84.9017 455.613 94.7354C425.346 104.511 392.707 87.8518 382.868 57.5988C373.088 27.2879 389.755 -5.27895 420.022 -15.1126C450.347 -24.9463 482.986 -8.28689 492.767 22.024ZM490.625 22.7181C481.192 -6.378 449.826 -22.4011 420.717 -12.9724C391.607 -3.54359 375.577 27.8085 385.01 56.9046C394.443 86.0008 425.809 102.024 454.919 92.5951C484.028 83.1663 500.059 51.8143 490.625 22.7181Z" fill="#E8DDCD"/>
<path d="M423.438 -4.62083C398.872 3.35104 385.442 29.6181 393.42 54.1646C401.34 78.7111 427.685 92.1313 452.251 84.2168C476.759 76.2449 490.19 49.9205 482.269 25.3741C474.291 0.884922 448.004 -12.5354 423.438 -4.62083Z" fill="#E8DDCD"/>
<path d="M484.497 27.2474C475.54 27.305 465.536 55.3438 459.429 62.6558C452.217 71.292 430.871 80.216 439.246 91.3279C462.744 122.361 519.454 26.9019 484.497 27.2474Z" fill="#B14123"/>
<path d="M459.322 62.8017C453.717 69.5658 444.471 73.2081 439.443 80.3769C437.652 82.9207 435.861 87.6036 439.212 89.7427C439.289 89.7812 439.366 89.8198 439.443 89.8583C444.008 92.5177 448.516 86.2739 451.29 83.8457C456.49 79.2785 461.749 75.0581 466.43 69.9127C476.427 58.986 487.059 43.2029 488.562 27.8824C487.175 27.4199 485.672 27.2465 484.228 27.2465C475.329 27.3043 465.389 55.4594 459.322 62.8017Z" fill="#C7583E"/>
<path d="M442.304 90.6884C440.294 89.9528 432.309 91.6691 432.309 91.6691C432.309 91.6691 432.085 97.4921 435.603 100.496C440.573 104.786 443.7 103.315 443.7 103.315C443.7 103.315 444.817 95.2855 444.147 92.7724C443.923 92.0982 442.918 90.8723 442.304 90.6884Z" fill="#803422"/>
<path d="M463.593 13.1899C454.79 13.2483 444.958 41.6877 438.957 49.1041C431.869 57.8637 410.891 66.9152 419.122 78.1859C442.215 109.662 497.947 12.8395 463.593 13.1899Z" fill="#A12300"/>
<path d="M439.231 48.7442C433.625 55.5083 424.379 59.1506 419.352 66.3194C417.561 68.8632 415.769 73.5461 419.121 75.6852C419.198 75.7237 419.275 75.7623 419.352 75.8008C423.917 78.4602 428.424 72.2164 431.198 69.7882C436.399 65.221 441.658 61.0006 446.338 55.8552C456.335 44.9285 466.968 29.1454 468.47 13.8249C467.084 13.3624 465.581 13.189 464.136 13.189C455.237 13.2468 445.298 41.4019 439.231 48.7442Z" fill="#B73415"/>
<path d="M424.269 67.4138C424.269 67.4138 431.933 69.9281 434.673 80.464C434.673 80.464 439.204 67.1744 424.269 67.4138Z" fill="#701C08"/>
<path d="M430.297 62.3919C430.297 62.3919 437.979 64.895 440.707 75.4435C440.707 75.4435 445.216 62.2131 430.297 62.3919Z" fill="#701C08"/>
<path d="M436.324 56.3673C436.324 56.3673 444.007 58.8703 446.734 69.4189C446.734 69.4189 451.244 56.1885 436.324 56.3673Z" fill="#701C08"/>
<path d="M421.208 77.6209C419.198 76.942 411.213 78.5262 411.213 78.5262C411.213 78.5262 410.989 83.9013 414.507 86.6737C419.477 90.6343 422.604 89.2764 422.604 89.2764C422.604 89.2764 423.721 81.8644 423.051 79.5446C422.827 78.9223 421.822 77.7907 421.208 77.6209Z" fill="#701C08"/>
<path d="M446.515 -3.87992C437.713 -3.82235 427.881 24.2165 421.879 31.5284C414.791 40.1646 393.813 49.0887 402.044 60.2006C425.137 91.2333 480.869 -4.22537 446.515 -3.87992Z" fill="#B14123"/>
<path d="M421.148 31.6743C415.543 38.4385 406.297 42.0807 401.27 49.2496C399.478 51.7934 397.687 56.4763 401.039 58.6154C401.116 58.6539 401.193 58.6924 401.27 58.731C405.835 61.3904 410.342 55.1466 413.116 52.7184C418.317 48.1511 423.575 43.9308 428.256 38.7854C438.253 27.8587 448.886 12.0756 450.388 -3.24491C449.001 -3.70742 447.499 -3.88086 446.054 -3.88086C437.155 -3.82305 427.216 24.3321 421.148 31.6743Z" fill="#C7583E"/>
<path d="M407.192 50.344C407.192 50.344 414.855 52.8583 417.596 63.3942C417.596 63.3942 422.127 50.1046 407.192 50.344Z" fill="#803422"/>
<path d="M413.219 45.322C413.219 45.322 420.902 47.6325 423.629 57.3696C423.629 57.3696 428.139 45.1569 413.219 45.322Z" fill="#803422"/>
<path d="M419.247 39.2975C419.247 39.2975 426.929 41.8005 429.657 52.349C429.657 52.349 434.166 39.1187 419.247 39.2975Z" fill="#803422"/>
<path d="M425.274 32.2688C425.274 32.2688 433.655 34.7718 436.631 45.3204C436.631 45.3204 441.55 32.09 425.274 32.2688Z" fill="#803422"/>
<path d="M430.297 24.8827C430.297 24.8827 438.348 25.5476 443.302 35.2793C443.302 35.2793 444.935 21.0746 430.297 24.8827Z" fill="#803422"/>
<path d="M434.315 17.7949C434.315 17.7949 442.985 18.3444 448.32 27.2464C448.32 27.2464 450.079 14.333 434.315 17.7949Z" fill="#803422"/>
<path d="M439.338 9.38636C439.338 9.38636 447.439 9.00092 453.402 17.2053C453.402 17.2053 453.458 4.21045 439.338 9.38636Z" fill="#803422"/>
<path d="M404.13 59.5611C402.12 58.8255 394.135 60.5418 394.135 60.5418C394.135 60.5418 393.912 66.3648 397.43 69.3682C402.399 73.6589 405.526 72.1878 405.526 72.1878C405.526 72.1878 406.643 64.1582 405.973 61.6451C405.75 60.9708 404.745 59.7449 404.13 59.5611Z" fill="#803422"/>
<path d="M427.428 -18.9416C418.626 -18.884 408.794 9.15483 402.792 16.4668C395.704 25.103 374.726 34.0271 382.957 45.1389C406.05 76.1716 461.782 -19.287 427.428 -18.9416Z" fill="#A12300"/>
<path d="M402.635 16.6127C397.139 23.3769 388.075 27.0191 383.146 34.188C381.39 36.7317 379.634 41.4146 382.919 43.5537C382.995 43.5923 383.07 43.6308 383.146 43.6693C387.622 46.3288 392.041 40.0849 394.76 37.6568C399.859 33.0895 405.014 28.8691 409.603 23.7237C419.404 12.797 429.828 -2.98602 431.301 -18.3066C429.942 -18.7691 428.469 -18.9425 427.052 -18.9425C418.328 -18.8847 408.583 9.2704 402.635 16.6127Z" fill="#B73415"/>
<path d="M388.105 35.2822C388.105 35.2822 395.768 37.6031 398.509 47.3286C398.509 47.3286 403.04 35.0612 388.105 35.2822Z" fill="#701C08"/>
<path d="M394.132 29.2564C394.132 29.2564 401.815 31.7595 404.543 42.308C404.543 42.308 409.052 29.0776 394.132 29.2564Z" fill="#701C08"/>
<path d="M400.16 24.2358C400.16 24.2358 407.842 26.5463 410.57 36.2834C410.57 36.2834 415.079 24.0708 400.16 24.2358Z" fill="#701C08"/>
<path d="M406.187 16.203C406.187 16.203 414.568 18.706 417.544 29.2546C417.544 29.2546 422.463 16.0242 406.187 16.203Z" fill="#701C08"/>
<path d="M411.21 9.76209C411.21 9.76209 419.261 10.3665 424.215 19.2136C424.215 19.2136 425.848 6.30021 411.21 9.76209Z" fill="#701C08"/>
<path d="M416.233 1.78821C416.233 1.78821 424.284 2.39266 429.238 12.1848C429.238 12.1848 430.871 -2.01985 416.233 1.78821Z" fill="#701C08"/>
<path d="M420.251 -6.54398C420.251 -6.54398 428.352 -6.97225 434.315 2.14373C434.315 2.14373 434.371 -12.295 420.251 -6.54398Z" fill="#701C08"/>
<path d="M385.044 44.4853C383.033 43.8064 375.048 45.3906 375.048 45.3906C375.048 45.3906 374.825 50.7657 378.343 53.5381C383.313 57.4987 386.44 56.1407 386.44 56.1407C386.44 56.1407 387.556 48.7288 386.886 46.409C386.663 45.7866 385.658 44.6551 385.044 44.4853Z" fill="#701C08"/>
<path opacity="0.2" d="M282.463 -36.4399C255.566 -27.7476 240.765 1.0924 249.519 28.0328C258.216 54.9156 287.128 69.6522 314.025 60.9599C340.921 52.21 355.665 23.37 346.968 -3.51278C338.272 -30.4531 309.359 -45.1898 282.463 -36.4399Z" fill="#0A0705"/>
<path d="M284.458 -45.4521C257.556 -36.6746 242.808 -7.49376 251.507 19.6526C260.205 46.7989 289.124 61.68 316.026 52.9025C342.928 44.0669 357.676 14.9441 348.977 -12.2022C340.278 -39.4067 311.36 -54.2878 284.458 -45.4521Z" fill="#FFF9EE"/>
<path fill-rule="evenodd" clip-rule="evenodd" d="M339.412 -8.81301C346.431 12.4914 334.539 35.5138 312.961 42.3862C291.324 49.3159 268.063 37.5756 261.044 16.2712C254.083 -5.09048 265.975 -28.0557 287.554 -34.9853C309.19 -41.8577 332.451 -30.1747 339.412 -8.81301ZM337.904 -8.35486C331.175 -28.8575 308.842 -40.1397 288.076 -33.4963C267.309 -26.853 255.882 -4.74687 262.61 15.7557C269.339 36.2583 291.672 47.5405 312.439 40.8972C333.205 34.2539 344.633 12.1477 337.904 -8.35486Z" fill="#E8DDCD"/>
<path d="M290.067 -28.2695C272.614 -22.5789 263.058 -3.59105 268.723 14.0613C274.388 31.7137 293.043 41.4109 310.438 35.7204C327.891 29.9717 337.39 11.0419 331.782 -6.66857C326.117 -24.3209 307.463 -34.0181 290.067 -28.2695Z" fill="#BCE0DF"/>
<path d="M295.539 -18.8916C297.036 -20.0488 297.727 -22.0739 297.094 -23.9832C295.98 -27.5318 294.867 -31.0804 293.754 -34.629C292.947 -37.1169 290.126 -39.6048 287.477 -39.8362C276.074 -40.7041 264.787 -37.2326 255.746 -30.1739C253.615 -28.4382 252.578 -24.851 253.212 -22.421C254.133 -18.9881 255.055 -15.5552 255.976 -12.1223C256.494 -10.2708 258.164 -8.99794 260.065 -8.7665L268.703 20.8567C269.452 23.4025 272.043 24.8489 274.577 24.0968L300.895 16.3438C303.371 15.5917 304.811 12.988 304.062 10.4423L295.539 -18.8916Z" fill="#A35110"/>
<path d="M294.505 -18.3091C294.331 -18.938 294.563 -19.6241 295.084 -20.0243C296.069 -20.8247 296.475 -22.0825 296.127 -23.2832L292.767 -33.8032C292.13 -35.7471 289.813 -37.691 287.843 -37.8625C282.572 -38.2055 277.242 -37.6338 272.086 -36.1473C266.641 -34.6036 261.659 -32.0308 257.141 -28.6003C255.461 -27.2853 254.708 -24.4267 255.171 -22.7114L257.952 -12.4773C258.241 -11.3338 259.284 -10.5334 260.559 -10.4191C261.254 -10.3619 261.833 -9.90453 262.007 -9.21845L270.754 20.0545C271.217 21.7126 272.955 22.6274 274.577 22.17L301.051 14.5087C302.673 13.9941 303.6 12.3361 303.137 10.6781L294.505 -18.3091Z" fill="#E7AD5C"/>
<path d="M281.223 -1.76875C280.435 -1.60534 280.011 -1.03341 280.192 -0.502331C280.435 0.0287524 281.283 0.31471 282.071 0.1513C282.859 0.0287424 283.344 -0.543193 283.102 -1.07428C282.859 -1.60536 282.011 -1.93216 281.223 -1.76875Z" fill="#A35110"/>
<path d="M288.871 6.24245C288.39 6.32267 288.069 6.60341 288.229 6.88416C288.39 7.12481 288.951 7.28526 289.433 7.20504C289.995 7.12483 290.316 6.84407 290.155 6.60343C289.995 6.32268 289.433 6.16223 288.871 6.24245Z" fill="#A35110"/>
<path d="M292.969 -1.7693C292.407 -1.60887 292.086 -1.04735 292.247 -0.566046C292.407 -0.00452721 292.969 0.316311 293.531 0.155877C294.012 -0.00455666 294.333 -0.566056 294.173 -1.12757C294.012 -1.60888 293.451 -1.92973 292.969 -1.7693Z" fill="#A35110"/>
<path d="M274.546 6.30138C273.504 6.52949 272.891 7.35067 273.198 8.12624C273.504 8.94742 274.607 9.40363 275.71 9.17552C276.752 8.90179 277.364 8.08062 277.058 7.30506C276.752 6.48387 275.649 6.02765 274.546 6.30138Z" fill="#A35110"/>
<path d="M295.645 9.29337C294.543 9.52304 293.992 10.3958 294.298 11.1767C294.604 11.9575 295.706 12.4169 296.747 12.1872C297.848 11.9575 298.46 11.1307 298.154 10.3039C297.848 9.52305 296.685 9.0637 295.645 9.29337Z" fill="#A35110"/>
<path d="M283.515 8.25692C283.241 8.44016 283.119 8.98987 283.18 9.4785C283.271 10.0282 283.546 10.3336 283.79 10.2115C284.064 10.0282 284.217 9.47849 284.156 8.92877C284.064 8.44014 283.79 8.13476 283.515 8.25692Z" fill="#A35110"/>
<path d="M287.563 0.212359C287.259 0.273214 287.137 0.577493 287.198 0.820916C287.259 1.12519 287.563 1.24689 287.807 1.18604C288.111 1.06432 288.233 0.820901 288.172 0.577478C288.111 0.273199 287.807 0.151503 287.563 0.212359Z" fill="#A35110"/>
<path d="M316.285 -18.4961C315.94 -22.2307 315.576 -25.9653 315.193 -29.6999C314.905 -32.3258 312.664 -35.3602 310.078 -36.1772C299.158 -39.3282 287.434 -38.2779 277.147 -33.2011C274.733 -31.9757 273.009 -28.6496 273.124 -26.1404C273.316 -22.5224 273.507 -18.924 273.699 -15.345C273.814 -13.361 275.193 -11.7854 276.975 -11.2019L279.388 19.9005C279.618 22.5264 281.86 24.5104 284.503 24.277L311.744 22.1179C314.331 21.8845 316.285 19.5504 316.112 16.9245L313.698 -13.7694C315.422 -14.6447 316.514 -16.5121 316.285 -18.4961Z" fill="#BB631E"/>
<path d="M313.562 -15.167C314.719 -15.7438 315.414 -16.9553 315.298 -18.1667L314.141 -29.2425C313.967 -31.2615 312.057 -33.6844 310.205 -34.2036C305.113 -35.7034 299.788 -36.2226 294.464 -35.8188C288.851 -35.3573 283.353 -33.8574 278.26 -31.4346C276.35 -30.4539 275.019 -27.7427 275.135 -25.9544L275.714 -15.2823C275.772 -14.1286 276.64 -13.0902 277.855 -12.7441C278.492 -12.5134 278.954 -11.9365 279.012 -11.2443L281.443 19.4451C281.559 21.1757 283.063 22.4448 284.742 22.2717L312.231 20.1373C313.909 20.0219 315.182 18.5221 315.067 16.8492L312.636 -13.5517C312.636 -14.244 312.983 -14.8785 313.562 -15.167Z" fill="#FCD19D"/>
<path d="M296.573 0.199957C295.775 0.240826 295.162 0.731257 295.223 1.30342C295.285 1.83471 296.021 2.24341 296.818 2.20254C297.677 2.16167 298.29 1.67125 298.229 1.13996C298.167 0.567797 297.431 0.159089 296.573 0.199957Z" fill="#BB631E"/>
<path d="M302.168 9.23413C301.588 9.2743 301.174 9.51529 301.257 9.79644C301.257 10.0374 301.754 10.2382 302.334 10.2382C302.914 10.1981 303.328 9.95709 303.245 9.71611C303.245 9.43496 302.748 9.23413 302.168 9.23413Z" fill="#BB631E"/>
<path d="M307.756 2.21551C307.475 2.21551 307.274 2.69502 307.274 3.25447C307.314 3.81392 307.555 4.21354 307.836 4.21354C308.078 4.13361 308.278 3.65407 308.278 3.09462C308.238 2.53517 307.997 2.13558 307.756 2.21551Z" fill="#BB631E"/>
<path d="M288.065 6.23351C286.971 6.29494 286.12 7.27783 286.181 8.38359C286.303 9.48935 287.275 10.3494 288.369 10.2265C289.464 10.1651 290.254 9.1822 290.193 8.07644C290.132 6.97068 289.16 6.11064 288.065 6.23351Z" fill="#BB631E"/>
<path d="M308.69 13.2538C307.823 13.3753 307.231 14.2866 307.276 15.3802C307.368 16.5346 308.097 17.3244 308.918 17.2636C309.738 17.1421 310.331 16.17 310.285 15.0764C310.194 13.9828 309.51 13.193 308.69 13.2538Z" fill="#BB631E"/>
<path d="M296.133 10.2441C295.588 10.2441 295.164 10.7432 295.225 11.3047C295.286 11.8661 295.77 12.3028 296.315 12.2404C296.859 12.2404 297.283 11.7413 297.223 11.1799C297.162 10.6184 296.678 10.1817 296.133 10.2441Z" fill="#BB631E"/>
<path d="M301.719 3.21913C301.424 3.21913 301.247 3.46774 301.247 3.71636C301.306 4.02713 301.542 4.21358 301.778 4.21358C302.074 4.21358 302.251 3.96495 302.251 3.65418C302.192 3.40556 302.015 3.15698 301.719 3.21913Z" fill="#BB631E"/>
<path d="M334.776 -7.32245C335.587 -10.9296 336.417 -14.5368 337.267 -18.1439C337.847 -20.6766 336.63 -24.2454 334.428 -25.7995C324.984 -32.2463 313.455 -35.0093 302.041 -33.5702C299.318 -33.1673 296.595 -30.6346 295.9 -28.2171C294.973 -24.8018 294.026 -21.3865 293.061 -17.9712C292.539 -16.1293 293.35 -14.1722 294.915 -13.0786L287.325 16.738C286.688 19.2707 288.252 21.861 290.801 22.4941L317.51 29.1712C320.06 29.8044 322.667 28.3078 323.304 25.7751L330.778 -3.75367C332.69 -3.98391 334.312 -5.36538 334.776 -7.32245Z" fill="#BB631E"/>
<path d="M330.269 -5.87714C331.525 -6.05061 332.553 -6.97578 332.838 -8.19007L335.293 -19.0608C335.749 -21.0846 334.722 -23.918 333.181 -25.0744C328.842 -28.0812 324.047 -30.2785 318.909 -31.5506C313.543 -32.9384 307.949 -33.2853 302.411 -32.5914C300.299 -32.2445 298.187 -30.105 297.73 -28.4281L294.933 -18.0778C294.591 -16.9214 295.104 -15.7071 296.132 -14.9554C296.646 -14.5506 296.874 -13.8567 296.76 -13.2207L289.282 16.7317C288.882 18.4085 289.852 20.0854 291.508 20.4902L317.824 27.1977C319.48 27.6603 321.135 26.6194 321.535 25.0004L328.899 -4.66287C329.07 -5.29893 329.641 -5.81932 330.269 -5.87714Z" fill="#FCD19D"/>
<path d="M309.528 3.24798C308.998 3.06453 308.427 3.55374 308.304 4.34872C308.182 5.14369 308.508 5.99982 309.038 6.18328C309.569 6.36674 310.099 5.87753 310.262 5.08255C310.384 4.28757 310.058 3.43144 309.528 3.24798Z" fill="#BB631E"/>
<path d="M316.168 2.22395C315.361 2.12618 314.554 2.4195 314.334 2.95727C314.187 3.49504 314.627 4.03281 315.434 4.17947C316.241 4.32614 317.048 3.98392 317.268 3.44615C317.489 2.90838 316.975 2.37062 316.168 2.22395Z" fill="#BB631E"/>
<path d="M311.909 14.2609C311.665 14.2202 311.38 14.383 311.298 14.6272C311.258 14.9121 311.42 15.1971 311.665 15.2378C311.95 15.3192 312.235 15.1564 312.276 14.8715C312.357 14.6272 312.194 14.3423 311.909 14.2609Z" fill="#BB631E"/>
<path d="M318.956 9.27605C318.671 9.11322 318.427 9.43884 318.345 10.0087C318.264 10.4972 318.427 11.0671 318.712 11.2299C318.956 11.3113 319.241 10.9857 319.323 10.4972C319.363 9.92733 319.2 9.43887 318.956 9.27605Z" fill="#BB631E"/>
<path d="M299.759 6.29628C298.654 5.98932 297.548 6.66463 297.303 7.70831C296.996 8.81338 297.671 9.91845 298.715 10.164C299.821 10.471 300.926 9.79565 301.172 8.69058C301.479 7.6469 300.804 6.54185 299.759 6.29628Z" fill="#BB631E"/>
<path d="M316.814 20.3194C315.718 20.136 314.623 20.5945 314.379 21.4198C314.075 22.1993 314.745 23.0246 315.84 23.2539C316.874 23.4373 317.97 22.933 318.274 22.1535C318.518 21.3282 317.848 20.5028 316.814 20.3194Z" fill="#BB631E"/>
<path d="M306.514 13.2772C305.964 13.1551 305.414 13.4605 305.292 14.0103C305.169 14.56 305.475 15.1098 306.025 15.232C306.575 15.3541 307.064 15.0487 307.247 14.4989C307.369 13.9492 307.064 13.3994 306.514 13.2772Z" fill="#BB631E"/>
<path d="M312.92 8.24524C312.675 8.18418 312.37 8.30633 312.309 8.61164C312.248 8.85588 312.431 9.16119 312.675 9.22225C312.981 9.28332 313.225 9.10011 313.286 8.85586C313.347 8.55055 313.225 8.30631 312.92 8.24524Z" fill="#BB631E"/>
<path d="M346.974 14.6947C349.265 11.7848 351.575 8.89441 353.904 6.02338C355.508 3.9283 356.08 0.203701 354.763 -2.24056C349.265 -12.2504 340.216 -19.8742 329.45 -23.5988C326.872 -24.4717 323.322 -23.366 321.661 -21.4455C319.332 -18.7684 316.984 -16.0914 314.617 -13.4143C313.357 -11.9594 313.242 -9.86433 314.101 -8.17663L294.343 15.5676C292.625 17.6045 292.911 20.6307 294.859 22.3184L315.705 40.243C317.652 41.9307 320.63 41.6979 322.291 39.6611L341.877 16.2078C343.653 16.7898 345.714 16.266 346.974 14.6947Z" fill="#BB631E"/>
<path d="M342.977 14.5744C344.185 14.9774 345.452 14.5744 346.257 13.5956L353.278 4.95992C354.544 3.40549 354.889 0.411762 353.968 -1.31538C351.379 -5.9211 348.041 -10.0087 343.955 -13.463C339.639 -17.09 334.805 -19.8534 329.453 -21.6957C327.382 -22.329 324.562 -21.3503 323.411 -20.0261L316.333 -12.0812C315.527 -11.1601 315.412 -9.89351 316.045 -8.74208C316.333 -8.16637 316.275 -7.41793 315.815 -6.89979L295.961 16.5894C294.868 17.8559 294.983 19.8134 296.306 20.9072L317.196 38.6393C318.52 39.7331 320.419 39.5604 321.512 38.2362L341.193 15.0349C341.596 14.5168 342.344 14.3441 342.977 14.5744Z" fill="#FCD19D"/>
<path d="M318.785 1.53715C318.125 1.02519 317.172 1.09832 316.658 1.75655C316.145 2.34164 316.218 3.29244 316.805 3.87753C317.465 4.38949 318.418 4.31632 318.931 3.65809C319.518 3.07299 319.444 2.12224 318.785 1.53715Z" fill="#BB631E"/>
<path d="M319.978 13.6221C319.532 13.0716 318.923 13.1328 318.558 13.8056C318.192 14.4173 318.273 15.3961 318.679 15.8854C319.085 16.436 319.735 16.3748 320.1 15.7631C320.465 15.0902 320.384 14.1726 319.978 13.6221Z" fill="#BB631E"/>
<path d="M324.993 5.48324C324.553 5.09157 323.918 5.14051 323.576 5.58114C323.234 6.02177 323.282 6.65824 323.673 7.00096C324.113 7.34367 324.749 7.29472 325.091 6.85409C325.482 6.46241 325.433 5.82595 324.993 5.48324Z" fill="#BB631E"/>
<path d="M326.821 14.653C326.161 14.0655 325.208 14.1389 324.695 14.7999C324.182 15.4608 324.255 16.4155 324.841 16.9296C325.501 17.4437 326.454 17.3702 326.968 16.7093C327.554 16.1218 327.481 15.1671 326.821 14.653Z" fill="#BB631E"/>
<path d="M345.085 2.43403C344.645 2.09204 344.009 2.14087 343.667 2.53171C343.325 2.97141 343.374 3.60654 343.765 3.94852C344.205 4.33936 344.84 4.2905 345.182 3.85081C345.573 3.41111 345.525 2.77601 345.085 2.43403Z" fill="#BB631E"/>
<path d="M317.962 24.4131C317.556 24.2503 316.907 24.2503 316.582 24.4538C316.176 24.698 316.257 24.9828 316.663 25.1863C317.15 25.3491 317.718 25.3491 318.124 25.1049C318.449 24.9014 318.367 24.5759 317.962 24.4131Z" fill="#BB631E"/>
<path d="M326.165 23.4106C325.961 23.2457 325.675 23.2457 325.47 23.4518C325.307 23.6992 325.307 23.9878 325.552 24.194C325.756 24.3589 326.083 24.3177 326.247 24.1115C326.41 23.9054 326.41 23.5755 326.165 23.4106Z" fill="#BB631E"/>
<path d="M341.254 6.42202C341.049 6.09753 340.722 6.17867 340.559 6.58428C340.355 6.98989 340.395 7.63887 340.6 7.96336C340.804 8.36897 341.131 8.28782 341.295 7.88221C341.499 7.4766 341.458 6.82763 341.254 6.42202Z" fill="#BB631E"/>
<path d="M309.562 11.7236C308.706 10.9906 307.484 11.1128 306.751 11.9679C306.017 12.823 306.14 14.1056 306.995 14.7775C307.851 15.5104 309.073 15.3882 309.806 14.5332C310.539 13.7391 310.417 12.4565 309.562 11.7236Z" fill="#BB631E"/>
<path d="M318.784 31.8057C318.189 31.0728 317.226 31.1949 316.676 32.05C316.126 32.9051 316.218 34.1267 316.86 34.8596C317.501 35.5926 318.464 35.4704 318.968 34.6153C319.518 33.7602 319.426 32.5387 318.784 31.8057Z" fill="#BB631E"/>
<path d="M312.96 20.5199C312.528 20.1535 311.849 20.2145 311.541 20.6421C311.171 21.0696 311.232 21.6804 311.602 22.0469C312.034 22.4134 312.713 22.3523 313.083 21.9247C313.392 21.4972 313.392 20.8864 312.96 20.5199Z" fill="#BB631E"/>
<path d="M321.168 19.3846C320.926 19.2034 320.624 19.2637 320.443 19.445C320.261 19.6866 320.322 19.9886 320.503 20.1698C320.745 20.351 321.047 20.2907 321.228 20.1094C321.41 19.8678 321.349 19.5658 321.168 19.3846Z" fill="#BB631E"/>
<path d="M338.864 -0.454252C338.251 -1.00662 337.27 -0.883882 336.779 -0.270135C336.227 0.343611 336.288 1.32561 336.963 1.87798C337.576 2.36898 338.496 2.30761 339.048 1.69386C339.6 1.01874 339.538 0.0981203 338.864 -0.454252Z" fill="#BB631E"/>
<path d="M332.193 10.3725C331.99 10.1682 331.664 10.209 331.501 10.4133C331.338 10.6176 331.338 10.9445 331.542 11.1079C331.786 11.3122 332.071 11.2714 332.275 11.0671C332.437 10.8628 332.437 10.5359 332.193 10.3725Z" fill="#BB631E"/>
<path d="M306.815 18.6717L284.451 11.7185C278.831 9.99451 272.863 13.0976 271.125 18.6717L268.576 26.7743C266.838 32.3485 269.967 38.2674 275.587 39.9913L297.951 46.8872C303.571 48.6686 309.538 45.5655 311.277 39.9913L313.826 31.8887C315.564 26.3146 312.435 20.3957 306.815 18.6717Z" fill="#EEDA98"/>
<path d="M302.212 22.5041L286.444 16.7221C282.46 15.2767 278.077 17.3582 276.654 21.3477L274.605 27.1875C273.125 31.2348 275.174 35.6869 279.158 37.1324L294.983 42.9144C298.91 44.3599 303.293 42.2784 304.716 38.2888L306.822 32.449C308.245 28.4017 306.196 23.9496 302.212 22.5041Z" fill="#FBF0D0"/>
<path d="M88.217 0.88424C88.217 2.80117 86.817 4.36957 85.1058 4.36957C83.3428 4.36957 81.9427 2.80117 81.9427 0.88424C81.9427 -1.09078 83.3428 -2.65918 85.1058 -2.65918C86.817 -2.65918 88.217 -1.09078 88.217 0.88424Z" fill="#97AF31"/>
<path opacity="0.8" d="M42.2056 48.0483C42.2056 49.9812 40.7938 51.5627 39.0684 51.5627C37.343 51.5627 35.9313 49.9812 35.9313 48.0483C35.9313 46.1154 37.343 44.5339 39.0684 44.5339C40.7938 44.5339 42.2056 46.1154 42.2056 48.0483Z" fill="#B3DB18"/>
<g style="mix-blend-mode:multiply" opacity="0.4">
<path d="M61.5284 -76.0394C14.7186 -90.1361 -35.1597 -65.1781 -49.9006 -20.1729C-64.5813 24.7745 -38.5892 72.6683 8.22057 86.7649C55.0906 100.919 104.969 75.9036 119.65 30.9562C134.39 -13.9912 108.338 -61.885 61.5284 -76.0394Z" fill="#60544C"/>
</g>
<path d="M66.7327 -82.0426C19.9326 -96.1952 -29.9354 -71.1827 -44.6732 -26.2411C-59.3509 18.7006 -33.3642 66.5882 13.4961 80.7408C60.2962 94.8934 110.164 69.8809 124.902 24.9392C139.58 -20.0024 113.593 -67.9478 66.7327 -82.0426Z" fill="#FFF9EE"/>
<path fill-rule="evenodd" clip-rule="evenodd" d="M107.974 19.7858C96.3076 55.7378 56.5814 75.769 19.4877 64.4798C-17.606 53.1905 -38.3666 14.8069 -26.7 -21.1451C-15.0334 -57.0392 24.6928 -77.0705 61.7865 -65.7812C98.8802 -54.4919 119.641 -16.1083 107.974 19.7858ZM60.9489 -63.2339C25.2911 -74.1179 -12.8197 -54.8393 -24.0675 -20.3346C-35.2555 14.1701 -15.3924 51.1063 20.3253 61.9324C55.9831 72.8165 94.1538 53.5378 105.342 19.0332C116.53 -15.5294 96.6666 -52.4077 60.9489 -63.2339Z" fill="#E8DDCD"/>
<path d="M58.0433 -53.3308C27.4545 -62.4577 -5.12537 -46.2703 -14.7183 -17.1674C-24.3113 11.8781 -7.35769 42.8753 23.2312 52.0023C53.82 61.1866 86.3999 44.9992 95.9928 15.8963C105.586 -13.1492 88.6322 -44.1464 58.0433 -53.3308Z" fill="#E8DDCD"/>
<path d="M94.4913 -1.153C94.4913 27.4032 70.3765 50.5585 40.637 50.5585C10.8975 50.5585 -13.2173 27.4032 -13.2173 -1.153C-13.2173 -29.7092 10.8975 -52.8645 40.637 -52.8645C70.3765 -52.8645 94.4913 -29.7092 94.4913 -1.153Z" fill="#8AA426"/>
<path d="M39.0687 39.5133C39.0687 41.7377 37.4357 43.5297 35.4087 43.5297C33.3816 43.5297 31.7487 41.7377 31.7487 39.5133C31.7487 37.2888 33.3816 35.4968 35.4087 35.4968C37.4357 35.4968 39.0687 37.2888 39.0687 39.5133Z" fill="#97AF31"/>
<path d="M21.2914 40.0154C21.2914 41.9618 19.4252 43.5297 17.1085 43.5297C14.7919 43.5297 12.9257 41.9618 12.9257 40.0154C12.9257 38.0689 14.7919 36.501 17.1085 36.501C19.4252 36.501 21.2914 38.0689 21.2914 40.0154Z" fill="#97AF31"/>
<path d="M6.65142 20.4354C6.65142 22.6599 5.0185 24.4518 2.99142 24.4518C0.964344 24.4518 -0.668579 22.6599 -0.668579 20.4354C-0.668579 18.2109 0.964344 16.4189 2.99142 16.4189C5.0185 16.4189 6.65142 18.2109 6.65142 20.4354Z" fill="#97AF31"/>
<path d="M56.8458 29.4722C56.8458 31.6967 55.2128 33.4887 53.1858 33.4887C51.1587 33.4887 49.5258 31.6967 49.5258 29.4722C49.5258 27.2478 51.1587 25.4558 53.1858 25.4558C55.2128 25.4558 56.8458 27.2478 56.8458 29.4722Z" fill="#97AF31"/>
<path d="M57.8915 4.87155C57.8915 6.81797 56.0253 8.38593 53.7086 8.38593C51.392 8.38593 49.5258 6.81797 49.5258 4.87155C49.5258 2.92513 51.392 1.35718 53.7086 1.35718C56.0253 1.35718 57.8915 2.92513 57.8915 4.87155Z" fill="#97AF31"/>
<path d="M78.8056 30.4764C78.8056 32.7009 77.1727 34.4928 75.1456 34.4928C73.1185 34.4928 71.4856 32.7009 71.4856 30.4764C71.4856 28.2519 73.1185 26.46 75.1456 26.46C77.1727 26.46 78.8056 28.2519 78.8056 30.4764Z" fill="#97AF31"/>
<path d="M75.6685 5.3736C75.6685 7.59809 74.0356 9.39003 72.0085 9.39003C69.9814 9.39003 68.3485 7.59809 68.3485 5.3736C68.3485 3.14912 69.9814 1.35718 72.0085 1.35718C74.0356 1.35718 75.6685 3.14912 75.6685 5.3736Z" fill="#97AF31"/>
<path d="M13.9713 3.86765C13.9713 5.80055 12.5596 7.38202 10.8342 7.38202C9.10874 7.38202 7.69702 5.80055 7.69702 3.86765C7.69702 1.93474 9.10874 0.353271 10.8342 0.353271C12.5596 0.353271 13.9713 1.93474 13.9713 3.86765Z" fill="#97AF31"/>
<path d="M21.2916 25.958C21.2916 27.8909 19.6446 29.4724 17.6316 29.4724C15.6186 29.4724 13.9716 27.8909 13.9716 25.958C13.9716 24.0251 15.6186 22.4436 17.6316 22.4436C19.6446 22.4436 21.2916 24.0251 21.2916 25.958Z" fill="#97AF31"/>
<path d="M1.42278 6.87985C1.42278 8.81276 -0.224217 10.3942 -2.23722 10.3942C-4.25022 10.3942 -5.89722 8.81276 -5.89722 6.87985C-5.89722 4.94695 -4.25022 3.36548 -2.23722 3.36548C-0.224217 3.36548 1.42278 4.94695 1.42278 6.87985Z" fill="#97AF31"/>
<path d="M72.5314 17.423C72.5314 19.0797 70.8844 20.4353 68.8714 20.4353C66.8584 20.4353 65.2114 19.0797 65.2114 17.423C65.2114 15.7662 66.8584 14.4106 68.8714 14.4106C70.8844 14.4106 72.5314 15.7662 72.5314 17.423Z" fill="#97AF31"/>
<path d="M86.1257 17.925C86.1257 19.8579 84.4787 21.4394 82.4657 21.4394C80.4527 21.4394 78.8057 19.8579 78.8057 17.925C78.8057 15.9921 80.4527 14.4106 82.4657 14.4106C84.4787 14.4106 86.1257 15.9921 86.1257 17.925Z" fill="#97AF31"/>
<path d="M29.6572 12.9045C29.6572 14.8509 27.791 16.4189 25.4744 16.4189C23.1577 16.4189 21.2915 14.8509 21.2915 12.9045C21.2915 10.9581 23.1577 9.39014 25.4744 9.39014C27.791 9.39014 29.6572 10.9581 29.6572 12.9045Z" fill="#97AF31"/>
<path d="M51.6169 18.9292C51.6169 20.8621 49.9835 22.4435 47.9266 22.4435C45.9303 22.4435 44.2969 20.8621 44.2969 18.9292C44.2969 16.9963 45.9303 15.4148 47.9266 15.4148C49.9835 15.4148 51.6169 16.9963 51.6169 18.9292Z" fill="#97AF31"/>
<path d="M43.2513 6.9089C43.2513 8.82583 41.6043 10.3942 39.5913 10.3942C37.5783 10.3942 35.9313 8.82583 35.9313 6.9089C35.9313 4.93388 37.5783 3.36548 39.5913 3.36548C41.6043 3.36548 43.2513 4.93388 43.2513 6.9089Z" fill="#97AF31"/>
<path d="M54.7542 40.5174C54.7542 42.1742 53.1072 43.5298 51.0942 43.5298C49.0812 43.5298 47.4342 42.1742 47.4342 40.5174C47.4342 38.8607 49.0812 37.5051 51.0942 37.5051C53.1072 37.5051 54.7542 38.8607 54.7542 40.5174Z" fill="#B3DB18"/>
<path opacity="0.4" d="M23.3829 16.9209C23.3829 18.8538 21.7359 20.4352 19.7229 20.4352C17.7099 20.4352 16.0629 18.8538 16.0629 16.9209C16.0629 14.988 17.7099 13.4065 19.7229 13.4065C21.7359 13.4065 23.3829 14.988 23.3829 16.9209Z" fill="#B3DB18"/>
<path d="M10.8344 31.9826C10.8344 33.9155 9.1874 35.497 7.1744 35.497C5.1614 35.497 3.5144 33.9155 3.5144 31.9826C3.5144 30.0497 5.1614 28.4683 7.1744 28.4683C9.1874 28.4683 10.8344 30.0497 10.8344 31.9826Z" fill="#B3DB18"/>
<path d="M76.7143 23.9497C76.7143 25.8826 75.0673 27.4641 73.0543 27.4641C71.0413 27.4641 69.3943 25.8826 69.3943 23.9497C69.3943 22.0168 71.0413 20.4353 73.0543 20.4353C75.0673 20.4353 76.7143 22.0168 76.7143 23.9497Z" fill="#B3DB18"/>
<path d="M45.3429 29.9743C45.3429 31.9072 43.6959 33.4887 41.6829 33.4887C39.6699 33.4887 38.0229 31.9072 38.0229 29.9743C38.0229 28.0414 39.6699 26.46 41.6829 26.46C43.6959 26.46 45.3429 28.0414 45.3429 29.9743Z" fill="#B3DB18"/>
<path opacity="0.4" d="M23.3829 -3.16116C23.3829 -1.22826 21.7359 0.35321 19.7229 0.35321C17.7099 0.35321 16.0629 -1.22826 16.0629 -3.16116C16.0629 -5.09407 17.7099 -6.67554 19.7229 -6.67554C21.7359 -6.67554 23.3829 -5.09407 23.3829 -3.16116Z" fill="#B3DB18"/>
<path d="M63.12 20.9375C63.12 22.8704 61.473 24.4518 59.46 24.4518C57.447 24.4518 55.8 22.8704 55.8 20.9375C55.8 19.0046 57.447 17.4231 59.46 17.4231C61.473 17.4231 63.12 19.0046 63.12 20.9375Z" fill="#B3DB18"/>
<path d="M39.0686 22.4434C39.0686 24.6679 37.2024 26.4599 34.8857 26.4599C32.5691 26.4599 30.7029 24.6679 30.7029 22.4434C30.7029 20.2189 32.5691 18.427 34.8857 18.427C37.2024 18.427 39.0686 20.2189 39.0686 22.4434Z" fill="#97AF31"/>
<path opacity="0.6" d="M31.7486 -0.148956C31.7486 1.78395 30.1152 3.36542 28.1188 3.36542C26.062 3.36542 24.4286 1.78395 24.4286 -0.148956C24.4286 -2.08186 26.062 -3.66333 28.1188 -3.66333C30.1152 -3.66333 31.7486 -2.08186 31.7486 -0.148956Z" fill="#B3DB18"/>
<path opacity="0.6" d="M28.6115 30.9785C28.6115 32.9114 26.9645 34.4929 24.9515 34.4929C22.9385 34.4929 21.2915 32.9114 21.2915 30.9785C21.2915 29.0456 22.9385 27.4641 24.9515 27.4641C26.9645 27.4641 28.6115 29.0456 28.6115 30.9785Z" fill="#B3DB18"/>
<path opacity="0.6" d="M66.2572 8.88815C66.2572 10.8211 64.8455 12.4025 63.1201 12.4025C61.3946 12.4025 59.9829 10.8211 59.9829 8.88815C59.9829 6.95525 61.3946 5.37378 63.1201 5.37378C64.8455 5.37378 66.2572 6.95525 66.2572 8.88815Z" fill="#B3DB18"/>
<path opacity="0.8" d="M49.5258 11.9004C49.5258 13.8333 47.8924 15.4147 45.8356 15.4147C43.8392 15.4147 42.2058 13.8333 42.2058 11.9004C42.2058 9.96745 43.8392 8.38599 45.8356 8.38599C47.8924 8.38599 49.5258 9.96745 49.5258 11.9004Z" fill="#B3DB18"/>
<path opacity="0.8" d="M38.0229 12.8755C38.0229 14.8505 36.6112 16.4189 34.8858 16.4189C33.1604 16.4189 31.7487 14.8505 31.7487 12.8755C31.7487 10.9585 33.1604 9.39014 34.8858 9.39014C36.6112 9.39014 38.0229 10.9585 38.0229 12.8755Z" fill="#B3DB18"/>
<path opacity="0.8" d="M23.3829 5.8757C23.3829 7.80861 21.7359 9.39008 19.7229 9.39008C17.7099 9.39008 16.0629 7.80861 16.0629 5.8757C16.0629 3.9428 17.7099 2.36133 19.7229 2.36133C21.7359 2.36133 23.3829 3.9428 23.3829 5.8757Z" fill="#B3DB18"/>
<path opacity="0.8" d="M92.4001 -2.15701C92.4001 -0.224108 90.7531 1.35736 88.7401 1.35736C86.7271 1.35736 85.0801 -0.224108 85.0801 -2.15701C85.0801 -4.08992 86.7271 -5.67139 88.7401 -5.67139C90.7531 -5.67139 92.4001 -4.08992 92.4001 -2.15701Z" fill="#B3DB18"/>
<path opacity="0.8" d="M45.3429 43.0278C45.3429 44.9607 43.6959 46.5422 41.6829 46.5422C39.6699 46.5422 38.0229 44.9607 38.0229 43.0278C38.0229 41.0949 39.6699 39.5134 41.6829 39.5134C43.6959 39.5134 45.3429 41.0949 45.3429 43.0278Z" fill="#B3DB18"/>
<path opacity="0.8" d="M86.1257 10.8962C86.1257 12.8291 84.4923 14.4106 82.4959 14.4106C80.4391 14.4106 78.8057 12.8291 78.8057 10.8962C78.8057 8.9633 80.4391 7.38184 82.4959 7.38184C84.4923 7.38184 86.1257 8.9633 86.1257 10.8962Z" fill="#B3DB18"/>
<path opacity="0.8" d="M28.6115 43.0278C28.6115 44.9607 26.9645 46.5422 24.9515 46.5422C22.9385 46.5422 21.2915 44.9607 21.2915 43.0278C21.2915 41.0949 22.9385 39.5134 24.9515 39.5134C26.9645 39.5134 28.6115 41.0949 28.6115 43.0278Z" fill="#B3DB18"/>
<path opacity="0.8" d="M67.3029 37.0031C67.3029 38.936 65.6559 40.5175 63.6429 40.5175C61.6299 40.5175 59.9829 38.936 59.9829 37.0031C59.9829 35.0702 61.6299 33.4888 63.6429 33.4888C65.6559 33.4888 67.3029 35.0702 67.3029 37.0031Z" fill="#B3DB18"/>
<path opacity="0.8" d="M12.9257 14.9128C12.9257 16.8457 11.2787 18.4272 9.26571 18.4272C7.25271 18.4272 5.60571 16.8457 5.60571 14.9128C5.60571 12.9799 7.25271 11.3984 9.26571 11.3984C11.2787 11.3984 12.9257 12.9799 12.9257 14.9128Z" fill="#B3DB18"/>
<g style="mix-blend-mode:multiply" opacity="0.2">
<path d="M85.7085 -29.77C85.8288 -27.4601 86.0694 -25.0346 85.528 -22.7247C77.5872 8.34417 35.5974 36.5256 -3.68535 28.6717C-3.72545 28.6717 -3.76556 28.6717 -3.80566 28.6717C5.99999 41.8962 22.1222 50.5585 40.3498 50.5585C70.2481 50.5585 94.4915 27.2858 94.4915 -1.41537C94.4915 -11.8679 91.243 -21.6274 85.7085 -29.77Z" fill="#677A16"/>
</g>
<path opacity="0.2" d="M382.717 374.574C344.967 386.834 324.283 427.607 336.521 465.604C348.702 503.544 389.209 524.364 426.958 512.103C464.707 499.784 485.334 459.011 473.153 421.014C460.915 383.075 420.408 362.255 382.717 374.574Z" fill="#0A0705"/>
<path d="M383.721 367.522C345.972 379.841 325.288 420.612 337.526 458.55C349.707 496.546 390.214 517.365 427.963 505.047C465.712 492.787 486.339 452.015 474.158 414.019C461.92 376.024 421.413 355.262 383.721 367.522Z" fill="#FFF9EE"/>
<path fill-rule="evenodd" clip-rule="evenodd" d="M460.767 419.024C470.605 449.277 453.938 481.902 423.613 491.735C393.346 501.511 360.707 484.852 350.868 454.599C341.088 424.288 357.755 391.721 388.022 381.887C418.347 372.054 450.929 388.713 460.767 419.024ZM458.625 419.718C449.192 390.622 417.826 374.599 388.717 384.028C359.607 393.456 343.577 424.808 353.01 453.905C362.443 483.001 393.809 499.024 422.919 489.595C452.028 480.166 468.059 448.814 458.625 419.718Z" fill="#A5E1E7"/>
<path d="M391.438 391.399C366.872 399.457 353.442 426.007 361.42 450.817C369.34 475.627 395.685 489.192 420.251 481.192C444.759 473.135 458.19 446.527 450.269 421.717C442.291 396.964 416.004 383.4 391.438 391.399Z" fill="#BCE0DF"/>
<path d="M375.968 489.775C360.873 480.071 349.968 463.394 347.558 445.264C345.032 426.67 352.379 406.797 365.35 393.664C383.429 375.302 418.783 375.534 439.445 387.272C464.296 401.335 471.413 433.178 460.91 461.941C452.588 484.894 428.311 498.317 405.238 498.55C394.678 498.608 384.634 495.354 375.968 489.775Z" fill="#EDB374"/>
<path d="M380.603 480.523C368.357 472.791 359.476 459.462 357.503 444.979C355.472 430.15 361.45 414.283 372.013 403.781C386.698 389.125 415.486 389.298 432.26 398.646C452.516 409.897 458.262 435.343 449.73 458.308C442.939 476.657 423.205 487.389 404.458 487.504C395.868 487.562 387.684 484.966 380.603 480.523Z" fill="#E57200"/>
<path fill-rule="evenodd" clip-rule="evenodd" d="M461.497 437.193C456.169 438.982 450.898 440.945 445.686 443.023C447.423 447.409 449.161 451.738 450.783 456.125C451.4 455.74 452.018 455.356 452.636 454.971C457.501 451.796 462.019 459.531 457.154 462.706C456.072 463.437 454.972 464.129 453.852 464.784C453.852 464.784 453.852 464.803 453.852 464.841C455.474 469.574 449.103 471.999 446.207 468.939C439.952 472.056 433.523 474.769 427.036 477.482C428.233 480.715 429.372 483.966 430.453 487.237C432.307 492.721 423.619 495.03 421.766 489.604C420.839 486.756 419.854 483.928 418.812 481.119C413.599 483.485 408.445 486.025 403.58 489.027C403.464 489.95 403.116 490.816 402.305 491.566C401.263 492.605 399.525 493.125 397.962 492.778C397.305 493.279 396.668 493.779 396.05 494.279C394.081 495.78 391.533 496.126 389.679 494.279C388.116 492.721 387.768 489.431 389.679 487.93C390.413 487.353 391.147 486.795 391.88 486.256C388.714 481.985 385.722 477.578 382.903 473.038C378.327 475.289 373.694 477.54 369.061 479.733C363.848 482.215 359.272 474.481 364.485 471.999C369.118 469.805 373.733 467.573 378.327 465.303C376.165 461.532 374.099 457.722 372.13 453.874C371.59 452.835 371.068 451.777 370.566 450.699C366.338 453.355 362.226 456.125 358.23 459.127C356.261 460.57 353.249 459.415 352.091 457.511C350.758 455.202 351.743 452.835 353.712 451.392C357.882 448.217 362.226 445.331 366.628 442.561C364.833 438.578 363.095 434.537 361.647 430.439C359.292 431.902 356.956 433.402 354.639 434.941C349.832 438.174 345.314 430.382 350.121 427.207C352.979 425.244 355.875 423.378 358.809 421.608C358.075 418.914 357.477 416.182 357.014 413.411C356.087 407.755 364.775 405.33 365.701 411.045C366.049 413.007 366.454 414.951 366.918 416.875C373.173 413.354 379.544 410.006 385.915 406.716C383.945 402.714 381.957 398.731 379.949 394.767C377.401 389.63 385.162 385.07 387.768 390.265C389.814 394.383 391.861 398.5 393.907 402.617C401.031 399.039 408.213 395.402 415.221 391.535C414.989 388.187 419.044 386.455 421.882 387.841C421.959 387.802 422.017 387.764 422.055 387.725C427.094 384.839 431.612 392.632 426.573 395.46C426.419 395.575 426.264 395.672 426.11 395.749C428.137 401.059 430.28 406.312 432.481 411.564C437.114 409.659 441.747 407.697 446.323 405.677C448.582 404.695 451.13 404.984 452.52 407.293C453.621 409.198 453.099 412.43 450.898 413.411C445.918 415.605 440.937 417.683 435.898 419.761C438.041 424.783 440.184 429.804 442.269 434.768C447.829 432.517 453.389 430.439 459.123 428.534C464.625 426.687 466.942 435.346 461.497 437.193ZM407.866 431.536C410.259 436.692 412.595 441.887 414.874 447.121C421.187 444.062 427.558 441.06 434.044 438.232C431.959 433.21 429.816 428.188 427.673 423.166C421.071 425.937 414.41 428.708 407.866 431.536ZM397.904 410.698C399.989 414.931 402.035 419.203 404.043 423.513C410.761 420.569 417.48 417.798 424.198 415.028C422.171 410.064 420.144 405.099 418.233 400.135C411.514 403.772 404.68 407.235 397.904 410.698ZM374.389 438.001C381.397 434.076 388.579 430.497 395.877 427.149C393.907 422.993 391.919 418.856 389.911 414.739C383.019 418.26 376.184 421.896 369.524 425.706C370.914 429.92 372.594 433.96 374.389 438.001ZM386.378 461.32C393.154 457.857 399.989 454.451 406.823 451.046C404.506 445.735 402.132 440.464 399.699 435.23C392.401 438.578 385.22 442.157 378.269 446.139C378.926 447.486 379.602 448.814 380.297 450.122C382.266 453.874 384.235 457.626 386.378 461.32ZM415.8 472.98C414.024 468.362 412.19 463.783 410.298 459.242C403.811 462.475 397.382 465.765 390.953 468.997C393.56 473.211 396.34 477.367 399.352 481.35C404.622 478.175 410.182 475.52 415.8 472.98ZM442.848 460.628C441.168 455.894 439.315 451.161 437.404 446.486C431.033 449.256 424.662 452.258 418.349 455.317C420.318 459.973 422.21 464.668 424.025 469.401C430.396 466.631 436.709 463.86 442.848 460.628Z" fill="#EDB374"/>
<path fill-rule="evenodd" clip-rule="evenodd" d="M435.681 464.317C434.407 467.733 432.671 470.918 430.414 473.814C427.577 477.404 423.468 480.532 418.895 482.616C418.779 482.23 418.644 481.844 418.49 481.458C415.885 482.616 413.338 483.832 410.792 485.164C406.74 485.801 402.688 485.57 399.042 484.064C398.694 483.311 398.174 482.674 397.363 482.327C395.82 481.632 394.373 480.84 393.022 479.952C392.096 478.968 391.286 477.926 390.533 476.652C389.607 475.146 388.218 474.567 386.887 474.625C381.909 469.123 378.61 462 376.757 454.819C375.31 449.26 374.732 443.179 375.6 437.388C382.083 433.74 388.797 430.439 395.569 427.312C393.717 423.412 391.845 419.532 389.954 415.672C392.559 414.166 395.337 413.008 398.289 412.197C400.142 416.019 401.955 419.841 403.73 423.663C410.155 420.826 416.58 418.162 423.005 415.498C428.851 419.204 433.134 425.053 435.681 432.06C437.707 437.678 438.633 443.932 438.459 450.129C437.996 448.97 437.533 447.831 437.07 446.712C430.703 449.491 424.336 452.503 418.027 455.572C419.995 460.244 421.886 464.954 423.699 469.702C427.693 467.907 431.745 466.17 435.681 464.317ZM407.55 431.713C409.943 436.886 412.277 442.098 414.554 447.349C420.863 444.28 427.23 441.268 433.713 438.431C431.629 433.392 429.487 428.354 427.346 423.316C420.747 426.096 414.091 428.875 407.55 431.713ZM406.508 451.287C404.193 445.959 401.82 440.67 399.389 435.419C392.096 438.778 384.919 442.369 377.973 446.364C378.629 447.716 379.304 449.048 379.999 450.36C381.967 454.124 383.935 457.889 386.076 461.595C392.848 458.12 399.678 454.703 406.508 451.287ZM415.48 473.293C413.705 468.66 411.872 464.066 409.981 459.51C403.499 462.753 397.074 466.054 390.649 469.297C393.254 473.524 396.032 477.694 399.042 481.69C404.309 478.505 409.866 475.841 415.48 473.293Z" fill="#F9CA9B"/>
<path d="M397.292 448.345C397.292 451.083 395.066 453.366 392.269 453.366C389.53 453.366 387.247 451.083 387.247 448.345C387.247 445.549 389.53 443.324 392.269 443.324C395.066 443.324 397.292 445.549 397.292 448.345Z" fill="#B55906"/>
<path d="M427.429 435.794C427.429 438.869 425.203 441.316 422.406 441.316C419.667 441.316 417.384 438.869 417.384 435.794C417.384 432.781 419.667 430.271 422.406 430.271C425.203 430.271 427.429 432.781 427.429 435.794Z" fill="#B55906"/>
<path d="M385.238 426.757C385.238 428.697 383.675 430.271 381.696 430.271C379.768 430.271 378.206 428.697 378.206 426.757C378.206 424.816 379.768 423.242 381.696 423.242C383.675 423.242 385.238 424.816 385.238 426.757Z" fill="#B55906"/>
<path d="M415.374 413.201C415.374 415.419 413.589 417.218 411.386 417.218C409.183 417.218 407.338 415.419 407.338 413.201C407.338 410.983 409.183 409.185 411.386 409.185C413.589 409.185 415.374 410.983 415.374 413.201Z" fill="#B55906"/>
<path d="M380.215 406.172C380.215 408.39 378.369 410.189 376.166 410.189C373.964 410.189 372.178 408.39 372.178 406.172C372.178 403.954 373.964 402.156 376.166 402.156C378.369 402.156 380.215 403.954 380.215 406.172Z" fill="#B55906"/>
<path d="M400.507 382.994C400.621 382.57 400.791 382.107 401.019 381.606C405.172 373.513 417.346 380.855 412.056 387.792C408.415 392.648 398.8 389.295 400.507 382.994Z" fill="#F9CA9B"/>
<path d="M433.583 390.649C429.64 395.534 418.708 392.735 420.62 386.093C422.233 380.385 431.97 381.044 434.061 386.258C434.778 388.069 434.479 389.551 433.583 390.649Z" fill="#F9CA9B"/>
<path d="M448.967 406.936C442.643 408.758 435.843 399.767 441.748 395.302C446.879 391.423 454.097 397.887 452.248 403.528C451.651 405.467 450.398 406.525 448.967 406.936Z" fill="#F9CA9B"/>
<path d="M352.148 429.404C351.77 429.137 351.393 428.832 351.015 428.488C344.722 422.072 355.323 412.62 360.141 419.781C363.543 424.764 357.477 432.956 352.148 429.404Z" fill="#F9CA9B"/>
<path d="M369.047 399.966C372.725 405.092 366.691 414.092 360.657 410.276C355.427 406.972 358.99 398.314 364.794 398.143C366.806 398.086 368.185 398.826 369.047 399.966Z" fill="#F9CA9B"/>
<path d="M389.252 390.342C389.027 396.766 378.886 400.238 376.519 393.409C374.491 387.564 382.491 382.819 387.111 386.233C388.689 387.449 389.308 388.895 389.252 390.342Z" fill="#F9CA9B"/>
<path d="M354.571 441.601C360.764 443.866 360.885 455.192 353.368 455.371C346.933 455.55 344.889 446.012 349.76 442.495C351.504 441.244 353.127 441.065 354.571 441.601Z" fill="#F9CA9B"/>
</g>
<defs>
<clipPath id="clip0_218_12047">
<path d="M0 1.00001C0 0.447728 0.447715 0 1 0H439C439.552 0 440 0.447715 440 1V443C440 443.552 439.552 444 439 444H0.999999C0.447714 444 0 443.552 0 443V1.00001Z" fill="white"/>
</clipPath>
</defs>
</svg>
